G04 #@! TF.GenerationSoftware,KiCad,Pcbnew,(5.0.1-3-g963ef8bb5)*
G04 #@! TF.CreationDate,2022-07-03T20:38:46+09:00*
G04 #@! TF.ProjectId,LQFP48-Breakout,4C51465034382D427265616B6F75742E,rev?*
G04 #@! TF.SameCoordinates,Original*
G04 #@! TF.FileFunction,Copper,L1,Top,Signal*
G04 #@! TF.FilePolarity,Positive*
%FSLAX46Y46*%
G04 Gerber Fmt 4.6, Leading zero omitted, Abs format (unit mm)*
G04 Created by KiCad (PCBNEW (5.0.1-3-g963ef8bb5)) date Sunday, 03 July 2022 at 20:38:46*
%MOMM*%
%LPD*%
G01*
G04 APERTURE LIST*
G04 #@! TA.AperFunction,ComponentPad*
%ADD10R,1.600000X1.600000*%
G04 #@! TD*
G04 #@! TA.AperFunction,ComponentPad*
%ADD11O,1.600000X1.600000*%
G04 #@! TD*
G04 #@! TA.AperFunction,SMDPad,CuDef*
%ADD12C,0.250000*%
G04 #@! TD*
G04 #@! TA.AperFunction,Conductor*
%ADD13C,0.100000*%
G04 #@! TD*
G04 #@! TA.AperFunction,Conductor*
%ADD14C,0.250000*%
G04 #@! TD*
G04 APERTURE END LIST*
D10*
G04 #@! TO.P,J1,1*
G04 #@! TO.N,/A1*
X101473000Y-63500000D03*
D11*
G04 #@! TO.P,J1,25*
G04 #@! TO.N,/B24*
X116713000Y-121920000D03*
G04 #@! TO.P,J1,2*
G04 #@! TO.N,/A2*
X101473000Y-66040000D03*
G04 #@! TO.P,J1,26*
G04 #@! TO.N,/B23*
X116713000Y-119380000D03*
G04 #@! TO.P,J1,3*
G04 #@! TO.N,/A3*
X101473000Y-68580000D03*
G04 #@! TO.P,J1,27*
G04 #@! TO.N,/B22*
X116713000Y-116840000D03*
G04 #@! TO.P,J1,4*
G04 #@! TO.N,/A4*
X101473000Y-71120000D03*
G04 #@! TO.P,J1,28*
G04 #@! TO.N,/B21*
X116713000Y-114300000D03*
G04 #@! TO.P,J1,5*
G04 #@! TO.N,/A5*
X101473000Y-73660000D03*
G04 #@! TO.P,J1,29*
G04 #@! TO.N,/B20*
X116713000Y-111760000D03*
G04 #@! TO.P,J1,6*
G04 #@! TO.N,/A6*
X101473000Y-76200000D03*
G04 #@! TO.P,J1,30*
G04 #@! TO.N,/B19*
X116713000Y-109220000D03*
G04 #@! TO.P,J1,7*
G04 #@! TO.N,/A7*
X101473000Y-78740000D03*
G04 #@! TO.P,J1,31*
G04 #@! TO.N,/B18*
X116713000Y-106680000D03*
G04 #@! TO.P,J1,8*
G04 #@! TO.N,/A8*
X101473000Y-81280000D03*
G04 #@! TO.P,J1,32*
G04 #@! TO.N,/B17*
X116713000Y-104140000D03*
G04 #@! TO.P,J1,9*
G04 #@! TO.N,/A9*
X101473000Y-83820000D03*
G04 #@! TO.P,J1,33*
G04 #@! TO.N,/B16*
X116713000Y-101600000D03*
G04 #@! TO.P,J1,10*
G04 #@! TO.N,/A10*
X101473000Y-86360000D03*
G04 #@! TO.P,J1,34*
G04 #@! TO.N,/B15*
X116713000Y-99060000D03*
G04 #@! TO.P,J1,11*
G04 #@! TO.N,/A11*
X101473000Y-88900000D03*
G04 #@! TO.P,J1,35*
G04 #@! TO.N,/B14*
X116713000Y-96520000D03*
G04 #@! TO.P,J1,12*
G04 #@! TO.N,/A12*
X101473000Y-91440000D03*
G04 #@! TO.P,J1,36*
G04 #@! TO.N,/B13*
X116713000Y-93980000D03*
G04 #@! TO.P,J1,13*
G04 #@! TO.N,/A13*
X101473000Y-93980000D03*
G04 #@! TO.P,J1,37*
G04 #@! TO.N,/B12*
X116713000Y-91440000D03*
G04 #@! TO.P,J1,14*
G04 #@! TO.N,/A14*
X101473000Y-96520000D03*
G04 #@! TO.P,J1,38*
G04 #@! TO.N,/B11*
X116713000Y-88900000D03*
G04 #@! TO.P,J1,15*
G04 #@! TO.N,/A15*
X101473000Y-99060000D03*
G04 #@! TO.P,J1,39*
G04 #@! TO.N,/B10*
X116713000Y-86360000D03*
G04 #@! TO.P,J1,16*
G04 #@! TO.N,/A16*
X101473000Y-101600000D03*
G04 #@! TO.P,J1,40*
G04 #@! TO.N,/B9*
X116713000Y-83820000D03*
G04 #@! TO.P,J1,17*
G04 #@! TO.N,/A17*
X101473000Y-104140000D03*
G04 #@! TO.P,J1,41*
G04 #@! TO.N,/B8*
X116713000Y-81280000D03*
G04 #@! TO.P,J1,18*
G04 #@! TO.N,/A18*
X101473000Y-106680000D03*
G04 #@! TO.P,J1,42*
G04 #@! TO.N,/B7*
X116713000Y-78740000D03*
G04 #@! TO.P,J1,19*
G04 #@! TO.N,/A19*
X101473000Y-109220000D03*
G04 #@! TO.P,J1,43*
G04 #@! TO.N,/B6*
X116713000Y-76200000D03*
G04 #@! TO.P,J1,20*
G04 #@! TO.N,/A20*
X101473000Y-111760000D03*
G04 #@! TO.P,J1,44*
G04 #@! TO.N,/B5*
X116713000Y-73660000D03*
G04 #@! TO.P,J1,21*
G04 #@! TO.N,/A21*
X101473000Y-114300000D03*
G04 #@! TO.P,J1,45*
G04 #@! TO.N,/B4*
X116713000Y-71120000D03*
G04 #@! TO.P,J1,22*
G04 #@! TO.N,/A22*
X101473000Y-116840000D03*
G04 #@! TO.P,J1,46*
G04 #@! TO.N,/B3*
X116713000Y-68580000D03*
G04 #@! TO.P,J1,23*
G04 #@! TO.N,/A23*
X101473000Y-119380000D03*
G04 #@! TO.P,J1,47*
G04 #@! TO.N,/B2*
X116713000Y-66040000D03*
G04 #@! TO.P,J1,24*
G04 #@! TO.N,/A24*
X101473000Y-121920000D03*
G04 #@! TO.P,J1,48*
G04 #@! TO.N,/B1*
X116713000Y-63500000D03*
G04 #@! TD*
D12*
G04 #@! TO.P,U1,1*
G04 #@! TO.N,/A1*
X107961629Y-87689542D03*
D13*
G04 #@! TD*
G04 #@! TO.N,/A1*
G04 #@! TO.C,U1*
G36*
X107413621Y-87318311D02*
X107590398Y-87141534D01*
X108509637Y-88060773D01*
X108332860Y-88237550D01*
X107413621Y-87318311D01*
X107413621Y-87318311D01*
G37*
D12*
G04 #@! TO.P,U1,2*
G04 #@! TO.N,/A2*
X107608076Y-88043095D03*
D13*
G04 #@! TD*
G04 #@! TO.N,/A2*
G04 #@! TO.C,U1*
G36*
X107060068Y-87671864D02*
X107236845Y-87495087D01*
X108156084Y-88414326D01*
X107979307Y-88591103D01*
X107060068Y-87671864D01*
X107060068Y-87671864D01*
G37*
D12*
G04 #@! TO.P,U1,3*
G04 #@! TO.N,/A3*
X107254522Y-88396649D03*
D13*
G04 #@! TD*
G04 #@! TO.N,/A3*
G04 #@! TO.C,U1*
G36*
X106706514Y-88025418D02*
X106883291Y-87848641D01*
X107802530Y-88767880D01*
X107625753Y-88944657D01*
X106706514Y-88025418D01*
X106706514Y-88025418D01*
G37*
D12*
G04 #@! TO.P,U1,4*
G04 #@! TO.N,/A4*
X106900969Y-88750202D03*
D13*
G04 #@! TD*
G04 #@! TO.N,/A4*
G04 #@! TO.C,U1*
G36*
X106352961Y-88378971D02*
X106529738Y-88202194D01*
X107448977Y-89121433D01*
X107272200Y-89298210D01*
X106352961Y-88378971D01*
X106352961Y-88378971D01*
G37*
D12*
G04 #@! TO.P,U1,5*
G04 #@! TO.N,/A5*
X106547416Y-89103755D03*
D13*
G04 #@! TD*
G04 #@! TO.N,/A5*
G04 #@! TO.C,U1*
G36*
X105999408Y-88732524D02*
X106176185Y-88555747D01*
X107095424Y-89474986D01*
X106918647Y-89651763D01*
X105999408Y-88732524D01*
X105999408Y-88732524D01*
G37*
D12*
G04 #@! TO.P,U1,6*
G04 #@! TO.N,/A6*
X106193862Y-89457309D03*
D13*
G04 #@! TD*
G04 #@! TO.N,/A6*
G04 #@! TO.C,U1*
G36*
X105645854Y-89086078D02*
X105822631Y-88909301D01*
X106741870Y-89828540D01*
X106565093Y-90005317D01*
X105645854Y-89086078D01*
X105645854Y-89086078D01*
G37*
D12*
G04 #@! TO.P,U1,7*
G04 #@! TO.N,/A7*
X105840309Y-89810862D03*
D13*
G04 #@! TD*
G04 #@! TO.N,/A7*
G04 #@! TO.C,U1*
G36*
X105292301Y-89439631D02*
X105469078Y-89262854D01*
X106388317Y-90182093D01*
X106211540Y-90358870D01*
X105292301Y-89439631D01*
X105292301Y-89439631D01*
G37*
D12*
G04 #@! TO.P,U1,8*
G04 #@! TO.N,/A8*
X105486755Y-90164416D03*
D13*
G04 #@! TD*
G04 #@! TO.N,/A8*
G04 #@! TO.C,U1*
G36*
X104938747Y-89793185D02*
X105115524Y-89616408D01*
X106034763Y-90535647D01*
X105857986Y-90712424D01*
X104938747Y-89793185D01*
X104938747Y-89793185D01*
G37*
D12*
G04 #@! TO.P,U1,9*
G04 #@! TO.N,/A9*
X105133202Y-90517969D03*
D13*
G04 #@! TD*
G04 #@! TO.N,/A9*
G04 #@! TO.C,U1*
G36*
X104585194Y-90146738D02*
X104761971Y-89969961D01*
X105681210Y-90889200D01*
X105504433Y-91065977D01*
X104585194Y-90146738D01*
X104585194Y-90146738D01*
G37*
D12*
G04 #@! TO.P,U1,10*
G04 #@! TO.N,/A10*
X104779649Y-90871522D03*
D13*
G04 #@! TD*
G04 #@! TO.N,/A10*
G04 #@! TO.C,U1*
G36*
X104231641Y-90500291D02*
X104408418Y-90323514D01*
X105327657Y-91242753D01*
X105150880Y-91419530D01*
X104231641Y-90500291D01*
X104231641Y-90500291D01*
G37*
D12*
G04 #@! TO.P,U1,11*
G04 #@! TO.N,/A11*
X104426095Y-91225076D03*
D13*
G04 #@! TD*
G04 #@! TO.N,/A11*
G04 #@! TO.C,U1*
G36*
X103878087Y-90853845D02*
X104054864Y-90677068D01*
X104974103Y-91596307D01*
X104797326Y-91773084D01*
X103878087Y-90853845D01*
X103878087Y-90853845D01*
G37*
D12*
G04 #@! TO.P,U1,12*
G04 #@! TO.N,/A12*
X104072542Y-91578629D03*
D13*
G04 #@! TD*
G04 #@! TO.N,/A12*
G04 #@! TO.C,U1*
G36*
X103524534Y-91207398D02*
X103701311Y-91030621D01*
X104620550Y-91949860D01*
X104443773Y-92126637D01*
X103524534Y-91207398D01*
X103524534Y-91207398D01*
G37*
D12*
G04 #@! TO.P,U1,13*
G04 #@! TO.N,/A13*
X104072542Y-93841371D03*
D13*
G04 #@! TD*
G04 #@! TO.N,/A13*
G04 #@! TO.C,U1*
G36*
X103701311Y-94389379D02*
X103524534Y-94212602D01*
X104443773Y-93293363D01*
X104620550Y-93470140D01*
X103701311Y-94389379D01*
X103701311Y-94389379D01*
G37*
D12*
G04 #@! TO.P,U1,14*
G04 #@! TO.N,/A14*
X104426095Y-94194924D03*
D13*
G04 #@! TD*
G04 #@! TO.N,/A14*
G04 #@! TO.C,U1*
G36*
X104054864Y-94742932D02*
X103878087Y-94566155D01*
X104797326Y-93646916D01*
X104974103Y-93823693D01*
X104054864Y-94742932D01*
X104054864Y-94742932D01*
G37*
D12*
G04 #@! TO.P,U1,15*
G04 #@! TO.N,/A15*
X104779649Y-94548478D03*
D13*
G04 #@! TD*
G04 #@! TO.N,/A15*
G04 #@! TO.C,U1*
G36*
X104408418Y-95096486D02*
X104231641Y-94919709D01*
X105150880Y-94000470D01*
X105327657Y-94177247D01*
X104408418Y-95096486D01*
X104408418Y-95096486D01*
G37*
D12*
G04 #@! TO.P,U1,16*
G04 #@! TO.N,/A16*
X105133202Y-94902031D03*
D13*
G04 #@! TD*
G04 #@! TO.N,/A16*
G04 #@! TO.C,U1*
G36*
X104761971Y-95450039D02*
X104585194Y-95273262D01*
X105504433Y-94354023D01*
X105681210Y-94530800D01*
X104761971Y-95450039D01*
X104761971Y-95450039D01*
G37*
D12*
G04 #@! TO.P,U1,17*
G04 #@! TO.N,/A17*
X105486755Y-95255584D03*
D13*
G04 #@! TD*
G04 #@! TO.N,/A17*
G04 #@! TO.C,U1*
G36*
X105115524Y-95803592D02*
X104938747Y-95626815D01*
X105857986Y-94707576D01*
X106034763Y-94884353D01*
X105115524Y-95803592D01*
X105115524Y-95803592D01*
G37*
D12*
G04 #@! TO.P,U1,18*
G04 #@! TO.N,/A18*
X105840309Y-95609138D03*
D13*
G04 #@! TD*
G04 #@! TO.N,/A18*
G04 #@! TO.C,U1*
G36*
X105469078Y-96157146D02*
X105292301Y-95980369D01*
X106211540Y-95061130D01*
X106388317Y-95237907D01*
X105469078Y-96157146D01*
X105469078Y-96157146D01*
G37*
D12*
G04 #@! TO.P,U1,19*
G04 #@! TO.N,/A19*
X106193862Y-95962691D03*
D13*
G04 #@! TD*
G04 #@! TO.N,/A19*
G04 #@! TO.C,U1*
G36*
X105822631Y-96510699D02*
X105645854Y-96333922D01*
X106565093Y-95414683D01*
X106741870Y-95591460D01*
X105822631Y-96510699D01*
X105822631Y-96510699D01*
G37*
D12*
G04 #@! TO.P,U1,20*
G04 #@! TO.N,/A20*
X106547416Y-96316245D03*
D13*
G04 #@! TD*
G04 #@! TO.N,/A20*
G04 #@! TO.C,U1*
G36*
X106176185Y-96864253D02*
X105999408Y-96687476D01*
X106918647Y-95768237D01*
X107095424Y-95945014D01*
X106176185Y-96864253D01*
X106176185Y-96864253D01*
G37*
D12*
G04 #@! TO.P,U1,21*
G04 #@! TO.N,/A21*
X106900969Y-96669798D03*
D13*
G04 #@! TD*
G04 #@! TO.N,/A21*
G04 #@! TO.C,U1*
G36*
X106529738Y-97217806D02*
X106352961Y-97041029D01*
X107272200Y-96121790D01*
X107448977Y-96298567D01*
X106529738Y-97217806D01*
X106529738Y-97217806D01*
G37*
D12*
G04 #@! TO.P,U1,22*
G04 #@! TO.N,/A22*
X107254522Y-97023351D03*
D13*
G04 #@! TD*
G04 #@! TO.N,/A22*
G04 #@! TO.C,U1*
G36*
X106883291Y-97571359D02*
X106706514Y-97394582D01*
X107625753Y-96475343D01*
X107802530Y-96652120D01*
X106883291Y-97571359D01*
X106883291Y-97571359D01*
G37*
D12*
G04 #@! TO.P,U1,23*
G04 #@! TO.N,/A23*
X107608076Y-97376905D03*
D13*
G04 #@! TD*
G04 #@! TO.N,/A23*
G04 #@! TO.C,U1*
G36*
X107236845Y-97924913D02*
X107060068Y-97748136D01*
X107979307Y-96828897D01*
X108156084Y-97005674D01*
X107236845Y-97924913D01*
X107236845Y-97924913D01*
G37*
D12*
G04 #@! TO.P,U1,24*
G04 #@! TO.N,/A24*
X107961629Y-97730458D03*
D13*
G04 #@! TD*
G04 #@! TO.N,/A24*
G04 #@! TO.C,U1*
G36*
X107590398Y-98278466D02*
X107413621Y-98101689D01*
X108332860Y-97182450D01*
X108509637Y-97359227D01*
X107590398Y-98278466D01*
X107590398Y-98278466D01*
G37*
D12*
G04 #@! TO.P,U1,25*
G04 #@! TO.N,/B24*
X110224371Y-97730458D03*
D13*
G04 #@! TD*
G04 #@! TO.N,/B24*
G04 #@! TO.C,U1*
G36*
X109676363Y-97359227D02*
X109853140Y-97182450D01*
X110772379Y-98101689D01*
X110595602Y-98278466D01*
X109676363Y-97359227D01*
X109676363Y-97359227D01*
G37*
D12*
G04 #@! TO.P,U1,26*
G04 #@! TO.N,/B23*
X110577924Y-97376905D03*
D13*
G04 #@! TD*
G04 #@! TO.N,/B23*
G04 #@! TO.C,U1*
G36*
X110029916Y-97005674D02*
X110206693Y-96828897D01*
X111125932Y-97748136D01*
X110949155Y-97924913D01*
X110029916Y-97005674D01*
X110029916Y-97005674D01*
G37*
D12*
G04 #@! TO.P,U1,27*
G04 #@! TO.N,/B22*
X110931478Y-97023351D03*
D13*
G04 #@! TD*
G04 #@! TO.N,/B22*
G04 #@! TO.C,U1*
G36*
X110383470Y-96652120D02*
X110560247Y-96475343D01*
X111479486Y-97394582D01*
X111302709Y-97571359D01*
X110383470Y-96652120D01*
X110383470Y-96652120D01*
G37*
D12*
G04 #@! TO.P,U1,28*
G04 #@! TO.N,/B21*
X111285031Y-96669798D03*
D13*
G04 #@! TD*
G04 #@! TO.N,/B21*
G04 #@! TO.C,U1*
G36*
X110737023Y-96298567D02*
X110913800Y-96121790D01*
X111833039Y-97041029D01*
X111656262Y-97217806D01*
X110737023Y-96298567D01*
X110737023Y-96298567D01*
G37*
D12*
G04 #@! TO.P,U1,29*
G04 #@! TO.N,/B20*
X111638584Y-96316245D03*
D13*
G04 #@! TD*
G04 #@! TO.N,/B20*
G04 #@! TO.C,U1*
G36*
X111090576Y-95945014D02*
X111267353Y-95768237D01*
X112186592Y-96687476D01*
X112009815Y-96864253D01*
X111090576Y-95945014D01*
X111090576Y-95945014D01*
G37*
D12*
G04 #@! TO.P,U1,30*
G04 #@! TO.N,/B19*
X111992138Y-95962691D03*
D13*
G04 #@! TD*
G04 #@! TO.N,/B19*
G04 #@! TO.C,U1*
G36*
X111444130Y-95591460D02*
X111620907Y-95414683D01*
X112540146Y-96333922D01*
X112363369Y-96510699D01*
X111444130Y-95591460D01*
X111444130Y-95591460D01*
G37*
D12*
G04 #@! TO.P,U1,31*
G04 #@! TO.N,/B18*
X112345691Y-95609138D03*
D13*
G04 #@! TD*
G04 #@! TO.N,/B18*
G04 #@! TO.C,U1*
G36*
X111797683Y-95237907D02*
X111974460Y-95061130D01*
X112893699Y-95980369D01*
X112716922Y-96157146D01*
X111797683Y-95237907D01*
X111797683Y-95237907D01*
G37*
D12*
G04 #@! TO.P,U1,32*
G04 #@! TO.N,/B17*
X112699245Y-95255584D03*
D13*
G04 #@! TD*
G04 #@! TO.N,/B17*
G04 #@! TO.C,U1*
G36*
X112151237Y-94884353D02*
X112328014Y-94707576D01*
X113247253Y-95626815D01*
X113070476Y-95803592D01*
X112151237Y-94884353D01*
X112151237Y-94884353D01*
G37*
D12*
G04 #@! TO.P,U1,33*
G04 #@! TO.N,/B16*
X113052798Y-94902031D03*
D13*
G04 #@! TD*
G04 #@! TO.N,/B16*
G04 #@! TO.C,U1*
G36*
X112504790Y-94530800D02*
X112681567Y-94354023D01*
X113600806Y-95273262D01*
X113424029Y-95450039D01*
X112504790Y-94530800D01*
X112504790Y-94530800D01*
G37*
D12*
G04 #@! TO.P,U1,34*
G04 #@! TO.N,/B15*
X113406351Y-94548478D03*
D13*
G04 #@! TD*
G04 #@! TO.N,/B15*
G04 #@! TO.C,U1*
G36*
X112858343Y-94177247D02*
X113035120Y-94000470D01*
X113954359Y-94919709D01*
X113777582Y-95096486D01*
X112858343Y-94177247D01*
X112858343Y-94177247D01*
G37*
D12*
G04 #@! TO.P,U1,35*
G04 #@! TO.N,/B14*
X113759905Y-94194924D03*
D13*
G04 #@! TD*
G04 #@! TO.N,/B14*
G04 #@! TO.C,U1*
G36*
X113211897Y-93823693D02*
X113388674Y-93646916D01*
X114307913Y-94566155D01*
X114131136Y-94742932D01*
X113211897Y-93823693D01*
X113211897Y-93823693D01*
G37*
D12*
G04 #@! TO.P,U1,36*
G04 #@! TO.N,/B13*
X114113458Y-93841371D03*
D13*
G04 #@! TD*
G04 #@! TO.N,/B13*
G04 #@! TO.C,U1*
G36*
X113565450Y-93470140D02*
X113742227Y-93293363D01*
X114661466Y-94212602D01*
X114484689Y-94389379D01*
X113565450Y-93470140D01*
X113565450Y-93470140D01*
G37*
D12*
G04 #@! TO.P,U1,37*
G04 #@! TO.N,/B12*
X114113458Y-91578629D03*
D13*
G04 #@! TD*
G04 #@! TO.N,/B12*
G04 #@! TO.C,U1*
G36*
X113742227Y-92126637D02*
X113565450Y-91949860D01*
X114484689Y-91030621D01*
X114661466Y-91207398D01*
X113742227Y-92126637D01*
X113742227Y-92126637D01*
G37*
D12*
G04 #@! TO.P,U1,38*
G04 #@! TO.N,/B11*
X113759905Y-91225076D03*
D13*
G04 #@! TD*
G04 #@! TO.N,/B11*
G04 #@! TO.C,U1*
G36*
X113388674Y-91773084D02*
X113211897Y-91596307D01*
X114131136Y-90677068D01*
X114307913Y-90853845D01*
X113388674Y-91773084D01*
X113388674Y-91773084D01*
G37*
D12*
G04 #@! TO.P,U1,39*
G04 #@! TO.N,/B10*
X113406351Y-90871522D03*
D13*
G04 #@! TD*
G04 #@! TO.N,/B10*
G04 #@! TO.C,U1*
G36*
X113035120Y-91419530D02*
X112858343Y-91242753D01*
X113777582Y-90323514D01*
X113954359Y-90500291D01*
X113035120Y-91419530D01*
X113035120Y-91419530D01*
G37*
D12*
G04 #@! TO.P,U1,40*
G04 #@! TO.N,/B9*
X113052798Y-90517969D03*
D13*
G04 #@! TD*
G04 #@! TO.N,/B9*
G04 #@! TO.C,U1*
G36*
X112681567Y-91065977D02*
X112504790Y-90889200D01*
X113424029Y-89969961D01*
X113600806Y-90146738D01*
X112681567Y-91065977D01*
X112681567Y-91065977D01*
G37*
D12*
G04 #@! TO.P,U1,41*
G04 #@! TO.N,/B8*
X112699245Y-90164416D03*
D13*
G04 #@! TD*
G04 #@! TO.N,/B8*
G04 #@! TO.C,U1*
G36*
X112328014Y-90712424D02*
X112151237Y-90535647D01*
X113070476Y-89616408D01*
X113247253Y-89793185D01*
X112328014Y-90712424D01*
X112328014Y-90712424D01*
G37*
D12*
G04 #@! TO.P,U1,42*
G04 #@! TO.N,/B7*
X112345691Y-89810862D03*
D13*
G04 #@! TD*
G04 #@! TO.N,/B7*
G04 #@! TO.C,U1*
G36*
X111974460Y-90358870D02*
X111797683Y-90182093D01*
X112716922Y-89262854D01*
X112893699Y-89439631D01*
X111974460Y-90358870D01*
X111974460Y-90358870D01*
G37*
D12*
G04 #@! TO.P,U1,43*
G04 #@! TO.N,/B6*
X111992138Y-89457309D03*
D13*
G04 #@! TD*
G04 #@! TO.N,/B6*
G04 #@! TO.C,U1*
G36*
X111620907Y-90005317D02*
X111444130Y-89828540D01*
X112363369Y-88909301D01*
X112540146Y-89086078D01*
X111620907Y-90005317D01*
X111620907Y-90005317D01*
G37*
D12*
G04 #@! TO.P,U1,44*
G04 #@! TO.N,/B5*
X111638584Y-89103755D03*
D13*
G04 #@! TD*
G04 #@! TO.N,/B5*
G04 #@! TO.C,U1*
G36*
X111267353Y-89651763D02*
X111090576Y-89474986D01*
X112009815Y-88555747D01*
X112186592Y-88732524D01*
X111267353Y-89651763D01*
X111267353Y-89651763D01*
G37*
D12*
G04 #@! TO.P,U1,45*
G04 #@! TO.N,/B4*
X111285031Y-88750202D03*
D13*
G04 #@! TD*
G04 #@! TO.N,/B4*
G04 #@! TO.C,U1*
G36*
X110913800Y-89298210D02*
X110737023Y-89121433D01*
X111656262Y-88202194D01*
X111833039Y-88378971D01*
X110913800Y-89298210D01*
X110913800Y-89298210D01*
G37*
D12*
G04 #@! TO.P,U1,46*
G04 #@! TO.N,/B3*
X110931478Y-88396649D03*
D13*
G04 #@! TD*
G04 #@! TO.N,/B3*
G04 #@! TO.C,U1*
G36*
X110560247Y-88944657D02*
X110383470Y-88767880D01*
X111302709Y-87848641D01*
X111479486Y-88025418D01*
X110560247Y-88944657D01*
X110560247Y-88944657D01*
G37*
D12*
G04 #@! TO.P,U1,47*
G04 #@! TO.N,/B2*
X110577924Y-88043095D03*
D13*
G04 #@! TD*
G04 #@! TO.N,/B2*
G04 #@! TO.C,U1*
G36*
X110206693Y-88591103D02*
X110029916Y-88414326D01*
X110949155Y-87495087D01*
X111125932Y-87671864D01*
X110206693Y-88591103D01*
X110206693Y-88591103D01*
G37*
D12*
G04 #@! TO.P,U1,48*
G04 #@! TO.N,/B1*
X110224371Y-87689542D03*
D13*
G04 #@! TD*
G04 #@! TO.N,/B1*
G04 #@! TO.C,U1*
G36*
X109853140Y-88237550D02*
X109676363Y-88060773D01*
X110595602Y-87141534D01*
X110772379Y-87318311D01*
X109853140Y-88237550D01*
X109853140Y-88237550D01*
G37*
D14*
G04 #@! TO.N,/A1*
X107961629Y-87689542D02*
X107961629Y-69988629D01*
X107961629Y-69988629D02*
X101473000Y-63500000D01*
G04 #@! TO.N,/A2*
X106940981Y-71507981D02*
X102272999Y-66839999D01*
X106940981Y-87376000D02*
X106940981Y-71507981D01*
X102272999Y-66839999D02*
X101473000Y-66040000D01*
X107608076Y-88043095D02*
X106940981Y-87376000D01*
G04 #@! TO.N,/A3*
X106356989Y-73463989D02*
X102272999Y-69379999D01*
X102272999Y-69379999D02*
X101473000Y-68580000D01*
X106356989Y-87499116D02*
X106356989Y-73463989D01*
X107254522Y-88396649D02*
X106356989Y-87499116D01*
G04 #@! TO.N,/A4*
X105906978Y-75553978D02*
X102272999Y-71919999D01*
X106900969Y-88750202D02*
X105906978Y-87756211D01*
X102272999Y-71919999D02*
X101473000Y-71120000D01*
X105906978Y-87756211D02*
X105906978Y-75553978D01*
G04 #@! TO.N,/A5*
X105456967Y-88013306D02*
X106017087Y-88573426D01*
X106017087Y-88573426D02*
X106547416Y-89103755D01*
X105456967Y-77643967D02*
X105456967Y-88013306D01*
X101473000Y-73660000D02*
X105456967Y-77643967D01*
G04 #@! TO.N,/A6*
X105006956Y-79733956D02*
X105006956Y-88199707D01*
X101473000Y-76200000D02*
X105006956Y-79733956D01*
X105006956Y-88199707D02*
X106299000Y-89491751D01*
G04 #@! TO.N,/A7*
X104556945Y-88527498D02*
X104556945Y-81823945D01*
X105840309Y-89810862D02*
X104556945Y-88527498D01*
X102272999Y-79539999D02*
X101473000Y-78740000D01*
X104556945Y-81823945D02*
X102272999Y-79539999D01*
G04 #@! TO.N,/A8*
X102272999Y-82079999D02*
X101473000Y-81280000D01*
X104106934Y-88784595D02*
X104106934Y-83913934D01*
X105486755Y-90164416D02*
X104106934Y-88784595D01*
X104106934Y-83913934D02*
X102272999Y-82079999D01*
G04 #@! TO.N,/A9*
X103656923Y-89041690D02*
X103656923Y-86003923D01*
X103656923Y-86003923D02*
X102272999Y-84619999D01*
X105133202Y-90517969D02*
X103656923Y-89041690D01*
X102272999Y-84619999D02*
X101473000Y-83820000D01*
G04 #@! TO.N,/A10*
X103206912Y-88093913D02*
X102272999Y-87159999D01*
X103206912Y-89298785D02*
X103206912Y-88093913D01*
X104779649Y-90871522D02*
X103206912Y-89298785D01*
X102272999Y-87159999D02*
X101473000Y-86360000D01*
G04 #@! TO.N,/A11*
X102101019Y-88900000D02*
X101473000Y-88900000D01*
X104426095Y-91225076D02*
X102101019Y-88900000D01*
G04 #@! TO.N,/A12*
X101611629Y-91578629D02*
X101473000Y-91440000D01*
X104072542Y-91578629D02*
X101611629Y-91578629D01*
G04 #@! TO.N,/A13*
X101611629Y-93841371D02*
X101473000Y-93980000D01*
X104072542Y-93841371D02*
X101611629Y-93841371D01*
G04 #@! TO.N,/A14*
X102101019Y-96520000D02*
X101473000Y-96520000D01*
X104426095Y-94194924D02*
X102101019Y-96520000D01*
G04 #@! TO.N,/A15*
X104249320Y-95078807D02*
X104779649Y-94548478D01*
X102598001Y-97934999D02*
X102598001Y-96730126D01*
X102598001Y-96730126D02*
X104249320Y-95078807D01*
X101473000Y-99060000D02*
X102598001Y-97934999D01*
G04 #@! TO.N,/A16*
X105133202Y-94902031D02*
X103048012Y-96987221D01*
X103048012Y-100024988D02*
X102272999Y-100800001D01*
X102272999Y-100800001D02*
X101473000Y-101600000D01*
X103048012Y-96987221D02*
X103048012Y-100024988D01*
G04 #@! TO.N,/A17*
X103498023Y-97244316D02*
X103498023Y-102114977D01*
X103498023Y-102114977D02*
X102272999Y-103340001D01*
X102272999Y-103340001D02*
X101473000Y-104140000D01*
X105486755Y-95255584D02*
X103498023Y-97244316D01*
G04 #@! TO.N,/A18*
X102272999Y-105880001D02*
X101473000Y-106680000D01*
X103932969Y-103072799D02*
X103932969Y-104220031D01*
X103948034Y-103057734D02*
X103932969Y-103072799D01*
X103948034Y-97501413D02*
X103948034Y-103057734D01*
X105840309Y-95609138D02*
X103948034Y-97501413D01*
X103932969Y-104220031D02*
X102272999Y-105880001D01*
G04 #@! TO.N,/A19*
X102272999Y-108420001D02*
X101473000Y-109220000D01*
X106193862Y-95962691D02*
X104498956Y-97657597D01*
X104498956Y-97657597D02*
X104498956Y-106194044D01*
X104498956Y-106194044D02*
X102272999Y-108420001D01*
G04 #@! TO.N,/A20*
X102272999Y-110960001D02*
X101473000Y-111760000D01*
X104948967Y-97914694D02*
X104948967Y-108284033D01*
X106547416Y-96316245D02*
X104948967Y-97914694D01*
X104948967Y-108284033D02*
X102272999Y-110960001D01*
G04 #@! TO.N,/A21*
X102272999Y-113500001D02*
X101473000Y-114300000D01*
X105398978Y-98171789D02*
X105398978Y-110374022D01*
X106900969Y-96669798D02*
X105398978Y-98171789D01*
X105398978Y-110374022D02*
X102272999Y-113500001D01*
G04 #@! TO.N,/A22*
X105848989Y-98428884D02*
X105848989Y-112464011D01*
X107254522Y-97023351D02*
X105848989Y-98428884D01*
X105848989Y-112464011D02*
X102272999Y-116040001D01*
X102272999Y-116040001D02*
X101473000Y-116840000D01*
G04 #@! TO.N,/A23*
X107608076Y-97447599D02*
X106299000Y-98756675D01*
X107608076Y-97376905D02*
X107608076Y-97447599D01*
X106299000Y-98756675D02*
X106299000Y-114554000D01*
X106299000Y-114554000D02*
X101473000Y-119380000D01*
G04 #@! TO.N,/A24*
X107961629Y-115431371D02*
X101473000Y-121920000D01*
X107961629Y-97730458D02*
X107961629Y-115431371D01*
G04 #@! TO.N,/B24*
X110224371Y-115431371D02*
X116713000Y-121920000D01*
X110224371Y-97730458D02*
X110224371Y-115431371D01*
G04 #@! TO.N,/B23*
X111887000Y-98685981D02*
X111108253Y-97907234D01*
X111887000Y-114554000D02*
X111887000Y-98685981D01*
X111108253Y-97907234D02*
X110577924Y-97376905D01*
X116713000Y-119380000D02*
X111887000Y-114554000D01*
G04 #@! TO.N,/B22*
X112337011Y-98428884D02*
X112337011Y-112464011D01*
X110931478Y-97023351D02*
X112337011Y-98428884D01*
X112337011Y-112464011D02*
X115913001Y-116040001D01*
X115913001Y-116040001D02*
X116713000Y-116840000D01*
G04 #@! TO.N,/B21*
X112903000Y-98287767D02*
X111285031Y-96669798D01*
X112903000Y-110490000D02*
X112903000Y-98287767D01*
X116713000Y-114300000D02*
X112903000Y-110490000D01*
G04 #@! TO.N,/B20*
X115913001Y-110960001D02*
X116713000Y-111760000D01*
X113353011Y-108400011D02*
X115913001Y-110960001D01*
X111638584Y-96316245D02*
X113353011Y-98030672D01*
X113353011Y-98030672D02*
X113353011Y-108400011D01*
G04 #@! TO.N,/B19*
X113803022Y-97773575D02*
X113803022Y-106310022D01*
X113803022Y-106310022D02*
X115913001Y-108420001D01*
X115913001Y-108420001D02*
X116713000Y-109220000D01*
X111992138Y-95962691D02*
X113803022Y-97773575D01*
G04 #@! TO.N,/B18*
X112345691Y-95609138D02*
X114253033Y-97516480D01*
X115913001Y-105880001D02*
X116713000Y-106680000D01*
X114253033Y-97516480D02*
X114253033Y-104220033D01*
X114253033Y-104220033D02*
X115913001Y-105880001D01*
G04 #@! TO.N,/B17*
X113229574Y-95785913D02*
X112699245Y-95255584D01*
X116713000Y-104140000D02*
X114703044Y-102130044D01*
X114703044Y-102130044D02*
X114703044Y-97259383D01*
X114703044Y-97259383D02*
X113229574Y-95785913D01*
G04 #@! TO.N,/B16*
X113583127Y-95432360D02*
X113052798Y-94902031D01*
X115153055Y-100040055D02*
X115153055Y-97002288D01*
X115153055Y-97002288D02*
X113583127Y-95432360D01*
X116713000Y-101600000D02*
X115153055Y-100040055D01*
G04 #@! TO.N,/B15*
X115603066Y-96745193D02*
X113936680Y-95078807D01*
X115603066Y-97950066D02*
X115603066Y-96745193D01*
X113936680Y-95078807D02*
X113406351Y-94548478D01*
X116713000Y-99060000D02*
X115603066Y-97950066D01*
G04 #@! TO.N,/B14*
X116084981Y-96520000D02*
X116713000Y-96520000D01*
X113759905Y-94194924D02*
X116084981Y-96520000D01*
G04 #@! TO.N,/B13*
X116574371Y-93841371D02*
X116713000Y-93980000D01*
X114113458Y-93841371D02*
X116574371Y-93841371D01*
G04 #@! TO.N,/B12*
X116574371Y-91578629D02*
X116713000Y-91440000D01*
X114113458Y-91578629D02*
X116574371Y-91578629D01*
G04 #@! TO.N,/B11*
X116084981Y-88900000D02*
X116713000Y-88900000D01*
X113759905Y-91225076D02*
X116084981Y-88900000D01*
G04 #@! TO.N,/B10*
X115545075Y-88732798D02*
X115545075Y-87527925D01*
X115913001Y-87159999D02*
X116713000Y-86360000D01*
X113406351Y-90871522D02*
X115545075Y-88732798D01*
X115545075Y-87527925D02*
X115913001Y-87159999D01*
G04 #@! TO.N,/B9*
X115913001Y-84619999D02*
X116713000Y-83820000D01*
X115095064Y-85437936D02*
X115913001Y-84619999D01*
X113052798Y-90517969D02*
X115095064Y-88475703D01*
X115095064Y-88475703D02*
X115095064Y-85437936D01*
G04 #@! TO.N,/B8*
X112699245Y-90164416D02*
X114645053Y-88218608D01*
X115913001Y-82079999D02*
X116713000Y-81280000D01*
X114645053Y-83347947D02*
X115913001Y-82079999D01*
X114645053Y-88218608D02*
X114645053Y-83347947D01*
G04 #@! TO.N,/B7*
X114137053Y-81315947D02*
X115913001Y-79539999D01*
X115913001Y-79539999D02*
X116713000Y-78740000D01*
X114137053Y-88019500D02*
X114137053Y-81315947D01*
X112345691Y-89810862D02*
X114137053Y-88019500D01*
G04 #@! TO.N,/B6*
X115913001Y-76999999D02*
X116713000Y-76200000D01*
X113687042Y-87762405D02*
X113687042Y-79225958D01*
X113687042Y-79225958D02*
X115913001Y-76999999D01*
X111992138Y-89457309D02*
X113687042Y-87762405D01*
G04 #@! TO.N,/B5*
X113237031Y-87505308D02*
X113237031Y-77135969D01*
X111638584Y-89103755D02*
X113237031Y-87505308D01*
X115913001Y-74459999D02*
X116713000Y-73660000D01*
X113237031Y-77135969D02*
X115913001Y-74459999D01*
G04 #@! TO.N,/B4*
X111285031Y-88750202D02*
X112787020Y-87248213D01*
X112787020Y-87248213D02*
X112787020Y-75045980D01*
X112787020Y-75045980D02*
X115913001Y-71919999D01*
X115913001Y-71919999D02*
X116713000Y-71120000D01*
G04 #@! TO.N,/B3*
X115913001Y-69379999D02*
X116713000Y-68580000D01*
X112203030Y-87125097D02*
X112203030Y-73089970D01*
X112203030Y-73089970D02*
X115913001Y-69379999D01*
X110931478Y-88396649D02*
X112203030Y-87125097D01*
G04 #@! TO.N,/B2*
X115913001Y-66839999D02*
X116713000Y-66040000D01*
X111753019Y-86868000D02*
X111753019Y-70999981D01*
X110577924Y-88043095D02*
X111753019Y-86868000D01*
X111753019Y-70999981D02*
X115913001Y-66839999D01*
G04 #@! TO.N,/B1*
X110224371Y-69988629D02*
X116713000Y-63500000D01*
X110224371Y-87689542D02*
X110224371Y-69988629D01*
G04 #@! TD*
M02*
