G04 #@! TF.GenerationSoftware,KiCad,Pcbnew,(5.0.1-3-g963ef8bb5)*
G04 #@! TF.CreationDate,2022-07-03T20:38:46+09:00*
G04 #@! TF.ProjectId,LQFP48-Breakout,4C51465034382D427265616B6F75742E,rev?*
G04 #@! TF.SameCoordinates,Original*
G04 #@! TF.FileFunction,Soldermask,Top*
G04 #@! TF.FilePolarity,Negative*
%FSLAX46Y46*%
G04 Gerber Fmt 4.6, Leading zero omitted, Abs format (unit mm)*
G04 Created by KiCad (PCBNEW (5.0.1-3-g963ef8bb5)) date Sunday, 03 July 2022 at 20:38:46*
%MOMM*%
%LPD*%
G01*
G04 APERTURE LIST*
%ADD10C,0.100000*%
G04 APERTURE END LIST*
D10*
G36*
X116879821Y-121081313D02*
X116879824Y-121081314D01*
X116879825Y-121081314D01*
X117040239Y-121129975D01*
X117040241Y-121129976D01*
X117040244Y-121129977D01*
X117188078Y-121208995D01*
X117317659Y-121315341D01*
X117424005Y-121444922D01*
X117503023Y-121592756D01*
X117551687Y-121753179D01*
X117568117Y-121920000D01*
X117551687Y-122086821D01*
X117503023Y-122247244D01*
X117424005Y-122395078D01*
X117317659Y-122524659D01*
X117188078Y-122631005D01*
X117040244Y-122710023D01*
X117040241Y-122710024D01*
X117040239Y-122710025D01*
X116879825Y-122758686D01*
X116879824Y-122758686D01*
X116879821Y-122758687D01*
X116754804Y-122771000D01*
X116671196Y-122771000D01*
X116546179Y-122758687D01*
X116546176Y-122758686D01*
X116546175Y-122758686D01*
X116385761Y-122710025D01*
X116385759Y-122710024D01*
X116385756Y-122710023D01*
X116237922Y-122631005D01*
X116108341Y-122524659D01*
X116001995Y-122395078D01*
X115922977Y-122247244D01*
X115874313Y-122086821D01*
X115857883Y-121920000D01*
X115874313Y-121753179D01*
X115922977Y-121592756D01*
X116001995Y-121444922D01*
X116108341Y-121315341D01*
X116237922Y-121208995D01*
X116385756Y-121129977D01*
X116385759Y-121129976D01*
X116385761Y-121129975D01*
X116546175Y-121081314D01*
X116546176Y-121081314D01*
X116546179Y-121081313D01*
X116671196Y-121069000D01*
X116754804Y-121069000D01*
X116879821Y-121081313D01*
X116879821Y-121081313D01*
G37*
G36*
X101639821Y-121081313D02*
X101639824Y-121081314D01*
X101639825Y-121081314D01*
X101800239Y-121129975D01*
X101800241Y-121129976D01*
X101800244Y-121129977D01*
X101948078Y-121208995D01*
X102077659Y-121315341D01*
X102184005Y-121444922D01*
X102263023Y-121592756D01*
X102311687Y-121753179D01*
X102328117Y-121920000D01*
X102311687Y-122086821D01*
X102263023Y-122247244D01*
X102184005Y-122395078D01*
X102077659Y-122524659D01*
X101948078Y-122631005D01*
X101800244Y-122710023D01*
X101800241Y-122710024D01*
X101800239Y-122710025D01*
X101639825Y-122758686D01*
X101639824Y-122758686D01*
X101639821Y-122758687D01*
X101514804Y-122771000D01*
X101431196Y-122771000D01*
X101306179Y-122758687D01*
X101306176Y-122758686D01*
X101306175Y-122758686D01*
X101145761Y-122710025D01*
X101145759Y-122710024D01*
X101145756Y-122710023D01*
X100997922Y-122631005D01*
X100868341Y-122524659D01*
X100761995Y-122395078D01*
X100682977Y-122247244D01*
X100634313Y-122086821D01*
X100617883Y-121920000D01*
X100634313Y-121753179D01*
X100682977Y-121592756D01*
X100761995Y-121444922D01*
X100868341Y-121315341D01*
X100997922Y-121208995D01*
X101145756Y-121129977D01*
X101145759Y-121129976D01*
X101145761Y-121129975D01*
X101306175Y-121081314D01*
X101306176Y-121081314D01*
X101306179Y-121081313D01*
X101431196Y-121069000D01*
X101514804Y-121069000D01*
X101639821Y-121081313D01*
X101639821Y-121081313D01*
G37*
G36*
X101639821Y-118541313D02*
X101639824Y-118541314D01*
X101639825Y-118541314D01*
X101800239Y-118589975D01*
X101800241Y-118589976D01*
X101800244Y-118589977D01*
X101948078Y-118668995D01*
X102077659Y-118775341D01*
X102184005Y-118904922D01*
X102263023Y-119052756D01*
X102311687Y-119213179D01*
X102328117Y-119380000D01*
X102311687Y-119546821D01*
X102263023Y-119707244D01*
X102184005Y-119855078D01*
X102077659Y-119984659D01*
X101948078Y-120091005D01*
X101800244Y-120170023D01*
X101800241Y-120170024D01*
X101800239Y-120170025D01*
X101639825Y-120218686D01*
X101639824Y-120218686D01*
X101639821Y-120218687D01*
X101514804Y-120231000D01*
X101431196Y-120231000D01*
X101306179Y-120218687D01*
X101306176Y-120218686D01*
X101306175Y-120218686D01*
X101145761Y-120170025D01*
X101145759Y-120170024D01*
X101145756Y-120170023D01*
X100997922Y-120091005D01*
X100868341Y-119984659D01*
X100761995Y-119855078D01*
X100682977Y-119707244D01*
X100634313Y-119546821D01*
X100617883Y-119380000D01*
X100634313Y-119213179D01*
X100682977Y-119052756D01*
X100761995Y-118904922D01*
X100868341Y-118775341D01*
X100997922Y-118668995D01*
X101145756Y-118589977D01*
X101145759Y-118589976D01*
X101145761Y-118589975D01*
X101306175Y-118541314D01*
X101306176Y-118541314D01*
X101306179Y-118541313D01*
X101431196Y-118529000D01*
X101514804Y-118529000D01*
X101639821Y-118541313D01*
X101639821Y-118541313D01*
G37*
G36*
X116879821Y-118541313D02*
X116879824Y-118541314D01*
X116879825Y-118541314D01*
X117040239Y-118589975D01*
X117040241Y-118589976D01*
X117040244Y-118589977D01*
X117188078Y-118668995D01*
X117317659Y-118775341D01*
X117424005Y-118904922D01*
X117503023Y-119052756D01*
X117551687Y-119213179D01*
X117568117Y-119380000D01*
X117551687Y-119546821D01*
X117503023Y-119707244D01*
X117424005Y-119855078D01*
X117317659Y-119984659D01*
X117188078Y-120091005D01*
X117040244Y-120170023D01*
X117040241Y-120170024D01*
X117040239Y-120170025D01*
X116879825Y-120218686D01*
X116879824Y-120218686D01*
X116879821Y-120218687D01*
X116754804Y-120231000D01*
X116671196Y-120231000D01*
X116546179Y-120218687D01*
X116546176Y-120218686D01*
X116546175Y-120218686D01*
X116385761Y-120170025D01*
X116385759Y-120170024D01*
X116385756Y-120170023D01*
X116237922Y-120091005D01*
X116108341Y-119984659D01*
X116001995Y-119855078D01*
X115922977Y-119707244D01*
X115874313Y-119546821D01*
X115857883Y-119380000D01*
X115874313Y-119213179D01*
X115922977Y-119052756D01*
X116001995Y-118904922D01*
X116108341Y-118775341D01*
X116237922Y-118668995D01*
X116385756Y-118589977D01*
X116385759Y-118589976D01*
X116385761Y-118589975D01*
X116546175Y-118541314D01*
X116546176Y-118541314D01*
X116546179Y-118541313D01*
X116671196Y-118529000D01*
X116754804Y-118529000D01*
X116879821Y-118541313D01*
X116879821Y-118541313D01*
G37*
G36*
X116879821Y-116001313D02*
X116879824Y-116001314D01*
X116879825Y-116001314D01*
X117040239Y-116049975D01*
X117040241Y-116049976D01*
X117040244Y-116049977D01*
X117188078Y-116128995D01*
X117317659Y-116235341D01*
X117424005Y-116364922D01*
X117503023Y-116512756D01*
X117551687Y-116673179D01*
X117568117Y-116840000D01*
X117551687Y-117006821D01*
X117503023Y-117167244D01*
X117424005Y-117315078D01*
X117317659Y-117444659D01*
X117188078Y-117551005D01*
X117040244Y-117630023D01*
X117040241Y-117630024D01*
X117040239Y-117630025D01*
X116879825Y-117678686D01*
X116879824Y-117678686D01*
X116879821Y-117678687D01*
X116754804Y-117691000D01*
X116671196Y-117691000D01*
X116546179Y-117678687D01*
X116546176Y-117678686D01*
X116546175Y-117678686D01*
X116385761Y-117630025D01*
X116385759Y-117630024D01*
X116385756Y-117630023D01*
X116237922Y-117551005D01*
X116108341Y-117444659D01*
X116001995Y-117315078D01*
X115922977Y-117167244D01*
X115874313Y-117006821D01*
X115857883Y-116840000D01*
X115874313Y-116673179D01*
X115922977Y-116512756D01*
X116001995Y-116364922D01*
X116108341Y-116235341D01*
X116237922Y-116128995D01*
X116385756Y-116049977D01*
X116385759Y-116049976D01*
X116385761Y-116049975D01*
X116546175Y-116001314D01*
X116546176Y-116001314D01*
X116546179Y-116001313D01*
X116671196Y-115989000D01*
X116754804Y-115989000D01*
X116879821Y-116001313D01*
X116879821Y-116001313D01*
G37*
G36*
X101639821Y-116001313D02*
X101639824Y-116001314D01*
X101639825Y-116001314D01*
X101800239Y-116049975D01*
X101800241Y-116049976D01*
X101800244Y-116049977D01*
X101948078Y-116128995D01*
X102077659Y-116235341D01*
X102184005Y-116364922D01*
X102263023Y-116512756D01*
X102311687Y-116673179D01*
X102328117Y-116840000D01*
X102311687Y-117006821D01*
X102263023Y-117167244D01*
X102184005Y-117315078D01*
X102077659Y-117444659D01*
X101948078Y-117551005D01*
X101800244Y-117630023D01*
X101800241Y-117630024D01*
X101800239Y-117630025D01*
X101639825Y-117678686D01*
X101639824Y-117678686D01*
X101639821Y-117678687D01*
X101514804Y-117691000D01*
X101431196Y-117691000D01*
X101306179Y-117678687D01*
X101306176Y-117678686D01*
X101306175Y-117678686D01*
X101145761Y-117630025D01*
X101145759Y-117630024D01*
X101145756Y-117630023D01*
X100997922Y-117551005D01*
X100868341Y-117444659D01*
X100761995Y-117315078D01*
X100682977Y-117167244D01*
X100634313Y-117006821D01*
X100617883Y-116840000D01*
X100634313Y-116673179D01*
X100682977Y-116512756D01*
X100761995Y-116364922D01*
X100868341Y-116235341D01*
X100997922Y-116128995D01*
X101145756Y-116049977D01*
X101145759Y-116049976D01*
X101145761Y-116049975D01*
X101306175Y-116001314D01*
X101306176Y-116001314D01*
X101306179Y-116001313D01*
X101431196Y-115989000D01*
X101514804Y-115989000D01*
X101639821Y-116001313D01*
X101639821Y-116001313D01*
G37*
G36*
X116879821Y-113461313D02*
X116879824Y-113461314D01*
X116879825Y-113461314D01*
X117040239Y-113509975D01*
X117040241Y-113509976D01*
X117040244Y-113509977D01*
X117188078Y-113588995D01*
X117317659Y-113695341D01*
X117424005Y-113824922D01*
X117503023Y-113972756D01*
X117551687Y-114133179D01*
X117568117Y-114300000D01*
X117551687Y-114466821D01*
X117503023Y-114627244D01*
X117424005Y-114775078D01*
X117317659Y-114904659D01*
X117188078Y-115011005D01*
X117040244Y-115090023D01*
X117040241Y-115090024D01*
X117040239Y-115090025D01*
X116879825Y-115138686D01*
X116879824Y-115138686D01*
X116879821Y-115138687D01*
X116754804Y-115151000D01*
X116671196Y-115151000D01*
X116546179Y-115138687D01*
X116546176Y-115138686D01*
X116546175Y-115138686D01*
X116385761Y-115090025D01*
X116385759Y-115090024D01*
X116385756Y-115090023D01*
X116237922Y-115011005D01*
X116108341Y-114904659D01*
X116001995Y-114775078D01*
X115922977Y-114627244D01*
X115874313Y-114466821D01*
X115857883Y-114300000D01*
X115874313Y-114133179D01*
X115922977Y-113972756D01*
X116001995Y-113824922D01*
X116108341Y-113695341D01*
X116237922Y-113588995D01*
X116385756Y-113509977D01*
X116385759Y-113509976D01*
X116385761Y-113509975D01*
X116546175Y-113461314D01*
X116546176Y-113461314D01*
X116546179Y-113461313D01*
X116671196Y-113449000D01*
X116754804Y-113449000D01*
X116879821Y-113461313D01*
X116879821Y-113461313D01*
G37*
G36*
X101639821Y-113461313D02*
X101639824Y-113461314D01*
X101639825Y-113461314D01*
X101800239Y-113509975D01*
X101800241Y-113509976D01*
X101800244Y-113509977D01*
X101948078Y-113588995D01*
X102077659Y-113695341D01*
X102184005Y-113824922D01*
X102263023Y-113972756D01*
X102311687Y-114133179D01*
X102328117Y-114300000D01*
X102311687Y-114466821D01*
X102263023Y-114627244D01*
X102184005Y-114775078D01*
X102077659Y-114904659D01*
X101948078Y-115011005D01*
X101800244Y-115090023D01*
X101800241Y-115090024D01*
X101800239Y-115090025D01*
X101639825Y-115138686D01*
X101639824Y-115138686D01*
X101639821Y-115138687D01*
X101514804Y-115151000D01*
X101431196Y-115151000D01*
X101306179Y-115138687D01*
X101306176Y-115138686D01*
X101306175Y-115138686D01*
X101145761Y-115090025D01*
X101145759Y-115090024D01*
X101145756Y-115090023D01*
X100997922Y-115011005D01*
X100868341Y-114904659D01*
X100761995Y-114775078D01*
X100682977Y-114627244D01*
X100634313Y-114466821D01*
X100617883Y-114300000D01*
X100634313Y-114133179D01*
X100682977Y-113972756D01*
X100761995Y-113824922D01*
X100868341Y-113695341D01*
X100997922Y-113588995D01*
X101145756Y-113509977D01*
X101145759Y-113509976D01*
X101145761Y-113509975D01*
X101306175Y-113461314D01*
X101306176Y-113461314D01*
X101306179Y-113461313D01*
X101431196Y-113449000D01*
X101514804Y-113449000D01*
X101639821Y-113461313D01*
X101639821Y-113461313D01*
G37*
G36*
X116879821Y-110921313D02*
X116879824Y-110921314D01*
X116879825Y-110921314D01*
X117040239Y-110969975D01*
X117040241Y-110969976D01*
X117040244Y-110969977D01*
X117188078Y-111048995D01*
X117317659Y-111155341D01*
X117424005Y-111284922D01*
X117503023Y-111432756D01*
X117551687Y-111593179D01*
X117568117Y-111760000D01*
X117551687Y-111926821D01*
X117503023Y-112087244D01*
X117424005Y-112235078D01*
X117317659Y-112364659D01*
X117188078Y-112471005D01*
X117040244Y-112550023D01*
X117040241Y-112550024D01*
X117040239Y-112550025D01*
X116879825Y-112598686D01*
X116879824Y-112598686D01*
X116879821Y-112598687D01*
X116754804Y-112611000D01*
X116671196Y-112611000D01*
X116546179Y-112598687D01*
X116546176Y-112598686D01*
X116546175Y-112598686D01*
X116385761Y-112550025D01*
X116385759Y-112550024D01*
X116385756Y-112550023D01*
X116237922Y-112471005D01*
X116108341Y-112364659D01*
X116001995Y-112235078D01*
X115922977Y-112087244D01*
X115874313Y-111926821D01*
X115857883Y-111760000D01*
X115874313Y-111593179D01*
X115922977Y-111432756D01*
X116001995Y-111284922D01*
X116108341Y-111155341D01*
X116237922Y-111048995D01*
X116385756Y-110969977D01*
X116385759Y-110969976D01*
X116385761Y-110969975D01*
X116546175Y-110921314D01*
X116546176Y-110921314D01*
X116546179Y-110921313D01*
X116671196Y-110909000D01*
X116754804Y-110909000D01*
X116879821Y-110921313D01*
X116879821Y-110921313D01*
G37*
G36*
X101639821Y-110921313D02*
X101639824Y-110921314D01*
X101639825Y-110921314D01*
X101800239Y-110969975D01*
X101800241Y-110969976D01*
X101800244Y-110969977D01*
X101948078Y-111048995D01*
X102077659Y-111155341D01*
X102184005Y-111284922D01*
X102263023Y-111432756D01*
X102311687Y-111593179D01*
X102328117Y-111760000D01*
X102311687Y-111926821D01*
X102263023Y-112087244D01*
X102184005Y-112235078D01*
X102077659Y-112364659D01*
X101948078Y-112471005D01*
X101800244Y-112550023D01*
X101800241Y-112550024D01*
X101800239Y-112550025D01*
X101639825Y-112598686D01*
X101639824Y-112598686D01*
X101639821Y-112598687D01*
X101514804Y-112611000D01*
X101431196Y-112611000D01*
X101306179Y-112598687D01*
X101306176Y-112598686D01*
X101306175Y-112598686D01*
X101145761Y-112550025D01*
X101145759Y-112550024D01*
X101145756Y-112550023D01*
X100997922Y-112471005D01*
X100868341Y-112364659D01*
X100761995Y-112235078D01*
X100682977Y-112087244D01*
X100634313Y-111926821D01*
X100617883Y-111760000D01*
X100634313Y-111593179D01*
X100682977Y-111432756D01*
X100761995Y-111284922D01*
X100868341Y-111155341D01*
X100997922Y-111048995D01*
X101145756Y-110969977D01*
X101145759Y-110969976D01*
X101145761Y-110969975D01*
X101306175Y-110921314D01*
X101306176Y-110921314D01*
X101306179Y-110921313D01*
X101431196Y-110909000D01*
X101514804Y-110909000D01*
X101639821Y-110921313D01*
X101639821Y-110921313D01*
G37*
G36*
X116879821Y-108381313D02*
X116879824Y-108381314D01*
X116879825Y-108381314D01*
X117040239Y-108429975D01*
X117040241Y-108429976D01*
X117040244Y-108429977D01*
X117188078Y-108508995D01*
X117317659Y-108615341D01*
X117424005Y-108744922D01*
X117503023Y-108892756D01*
X117551687Y-109053179D01*
X117568117Y-109220000D01*
X117551687Y-109386821D01*
X117503023Y-109547244D01*
X117424005Y-109695078D01*
X117317659Y-109824659D01*
X117188078Y-109931005D01*
X117040244Y-110010023D01*
X117040241Y-110010024D01*
X117040239Y-110010025D01*
X116879825Y-110058686D01*
X116879824Y-110058686D01*
X116879821Y-110058687D01*
X116754804Y-110071000D01*
X116671196Y-110071000D01*
X116546179Y-110058687D01*
X116546176Y-110058686D01*
X116546175Y-110058686D01*
X116385761Y-110010025D01*
X116385759Y-110010024D01*
X116385756Y-110010023D01*
X116237922Y-109931005D01*
X116108341Y-109824659D01*
X116001995Y-109695078D01*
X115922977Y-109547244D01*
X115874313Y-109386821D01*
X115857883Y-109220000D01*
X115874313Y-109053179D01*
X115922977Y-108892756D01*
X116001995Y-108744922D01*
X116108341Y-108615341D01*
X116237922Y-108508995D01*
X116385756Y-108429977D01*
X116385759Y-108429976D01*
X116385761Y-108429975D01*
X116546175Y-108381314D01*
X116546176Y-108381314D01*
X116546179Y-108381313D01*
X116671196Y-108369000D01*
X116754804Y-108369000D01*
X116879821Y-108381313D01*
X116879821Y-108381313D01*
G37*
G36*
X101639821Y-108381313D02*
X101639824Y-108381314D01*
X101639825Y-108381314D01*
X101800239Y-108429975D01*
X101800241Y-108429976D01*
X101800244Y-108429977D01*
X101948078Y-108508995D01*
X102077659Y-108615341D01*
X102184005Y-108744922D01*
X102263023Y-108892756D01*
X102311687Y-109053179D01*
X102328117Y-109220000D01*
X102311687Y-109386821D01*
X102263023Y-109547244D01*
X102184005Y-109695078D01*
X102077659Y-109824659D01*
X101948078Y-109931005D01*
X101800244Y-110010023D01*
X101800241Y-110010024D01*
X101800239Y-110010025D01*
X101639825Y-110058686D01*
X101639824Y-110058686D01*
X101639821Y-110058687D01*
X101514804Y-110071000D01*
X101431196Y-110071000D01*
X101306179Y-110058687D01*
X101306176Y-110058686D01*
X101306175Y-110058686D01*
X101145761Y-110010025D01*
X101145759Y-110010024D01*
X101145756Y-110010023D01*
X100997922Y-109931005D01*
X100868341Y-109824659D01*
X100761995Y-109695078D01*
X100682977Y-109547244D01*
X100634313Y-109386821D01*
X100617883Y-109220000D01*
X100634313Y-109053179D01*
X100682977Y-108892756D01*
X100761995Y-108744922D01*
X100868341Y-108615341D01*
X100997922Y-108508995D01*
X101145756Y-108429977D01*
X101145759Y-108429976D01*
X101145761Y-108429975D01*
X101306175Y-108381314D01*
X101306176Y-108381314D01*
X101306179Y-108381313D01*
X101431196Y-108369000D01*
X101514804Y-108369000D01*
X101639821Y-108381313D01*
X101639821Y-108381313D01*
G37*
G36*
X116879821Y-105841313D02*
X116879824Y-105841314D01*
X116879825Y-105841314D01*
X117040239Y-105889975D01*
X117040241Y-105889976D01*
X117040244Y-105889977D01*
X117188078Y-105968995D01*
X117317659Y-106075341D01*
X117424005Y-106204922D01*
X117503023Y-106352756D01*
X117551687Y-106513179D01*
X117568117Y-106680000D01*
X117551687Y-106846821D01*
X117503023Y-107007244D01*
X117424005Y-107155078D01*
X117317659Y-107284659D01*
X117188078Y-107391005D01*
X117040244Y-107470023D01*
X117040241Y-107470024D01*
X117040239Y-107470025D01*
X116879825Y-107518686D01*
X116879824Y-107518686D01*
X116879821Y-107518687D01*
X116754804Y-107531000D01*
X116671196Y-107531000D01*
X116546179Y-107518687D01*
X116546176Y-107518686D01*
X116546175Y-107518686D01*
X116385761Y-107470025D01*
X116385759Y-107470024D01*
X116385756Y-107470023D01*
X116237922Y-107391005D01*
X116108341Y-107284659D01*
X116001995Y-107155078D01*
X115922977Y-107007244D01*
X115874313Y-106846821D01*
X115857883Y-106680000D01*
X115874313Y-106513179D01*
X115922977Y-106352756D01*
X116001995Y-106204922D01*
X116108341Y-106075341D01*
X116237922Y-105968995D01*
X116385756Y-105889977D01*
X116385759Y-105889976D01*
X116385761Y-105889975D01*
X116546175Y-105841314D01*
X116546176Y-105841314D01*
X116546179Y-105841313D01*
X116671196Y-105829000D01*
X116754804Y-105829000D01*
X116879821Y-105841313D01*
X116879821Y-105841313D01*
G37*
G36*
X101639821Y-105841313D02*
X101639824Y-105841314D01*
X101639825Y-105841314D01*
X101800239Y-105889975D01*
X101800241Y-105889976D01*
X101800244Y-105889977D01*
X101948078Y-105968995D01*
X102077659Y-106075341D01*
X102184005Y-106204922D01*
X102263023Y-106352756D01*
X102311687Y-106513179D01*
X102328117Y-106680000D01*
X102311687Y-106846821D01*
X102263023Y-107007244D01*
X102184005Y-107155078D01*
X102077659Y-107284659D01*
X101948078Y-107391005D01*
X101800244Y-107470023D01*
X101800241Y-107470024D01*
X101800239Y-107470025D01*
X101639825Y-107518686D01*
X101639824Y-107518686D01*
X101639821Y-107518687D01*
X101514804Y-107531000D01*
X101431196Y-107531000D01*
X101306179Y-107518687D01*
X101306176Y-107518686D01*
X101306175Y-107518686D01*
X101145761Y-107470025D01*
X101145759Y-107470024D01*
X101145756Y-107470023D01*
X100997922Y-107391005D01*
X100868341Y-107284659D01*
X100761995Y-107155078D01*
X100682977Y-107007244D01*
X100634313Y-106846821D01*
X100617883Y-106680000D01*
X100634313Y-106513179D01*
X100682977Y-106352756D01*
X100761995Y-106204922D01*
X100868341Y-106075341D01*
X100997922Y-105968995D01*
X101145756Y-105889977D01*
X101145759Y-105889976D01*
X101145761Y-105889975D01*
X101306175Y-105841314D01*
X101306176Y-105841314D01*
X101306179Y-105841313D01*
X101431196Y-105829000D01*
X101514804Y-105829000D01*
X101639821Y-105841313D01*
X101639821Y-105841313D01*
G37*
G36*
X101639821Y-103301313D02*
X101639824Y-103301314D01*
X101639825Y-103301314D01*
X101800239Y-103349975D01*
X101800241Y-103349976D01*
X101800244Y-103349977D01*
X101948078Y-103428995D01*
X102077659Y-103535341D01*
X102184005Y-103664922D01*
X102263023Y-103812756D01*
X102311687Y-103973179D01*
X102328117Y-104140000D01*
X102311687Y-104306821D01*
X102263023Y-104467244D01*
X102184005Y-104615078D01*
X102077659Y-104744659D01*
X101948078Y-104851005D01*
X101800244Y-104930023D01*
X101800241Y-104930024D01*
X101800239Y-104930025D01*
X101639825Y-104978686D01*
X101639824Y-104978686D01*
X101639821Y-104978687D01*
X101514804Y-104991000D01*
X101431196Y-104991000D01*
X101306179Y-104978687D01*
X101306176Y-104978686D01*
X101306175Y-104978686D01*
X101145761Y-104930025D01*
X101145759Y-104930024D01*
X101145756Y-104930023D01*
X100997922Y-104851005D01*
X100868341Y-104744659D01*
X100761995Y-104615078D01*
X100682977Y-104467244D01*
X100634313Y-104306821D01*
X100617883Y-104140000D01*
X100634313Y-103973179D01*
X100682977Y-103812756D01*
X100761995Y-103664922D01*
X100868341Y-103535341D01*
X100997922Y-103428995D01*
X101145756Y-103349977D01*
X101145759Y-103349976D01*
X101145761Y-103349975D01*
X101306175Y-103301314D01*
X101306176Y-103301314D01*
X101306179Y-103301313D01*
X101431196Y-103289000D01*
X101514804Y-103289000D01*
X101639821Y-103301313D01*
X101639821Y-103301313D01*
G37*
G36*
X116879821Y-103301313D02*
X116879824Y-103301314D01*
X116879825Y-103301314D01*
X117040239Y-103349975D01*
X117040241Y-103349976D01*
X117040244Y-103349977D01*
X117188078Y-103428995D01*
X117317659Y-103535341D01*
X117424005Y-103664922D01*
X117503023Y-103812756D01*
X117551687Y-103973179D01*
X117568117Y-104140000D01*
X117551687Y-104306821D01*
X117503023Y-104467244D01*
X117424005Y-104615078D01*
X117317659Y-104744659D01*
X117188078Y-104851005D01*
X117040244Y-104930023D01*
X117040241Y-104930024D01*
X117040239Y-104930025D01*
X116879825Y-104978686D01*
X116879824Y-104978686D01*
X116879821Y-104978687D01*
X116754804Y-104991000D01*
X116671196Y-104991000D01*
X116546179Y-104978687D01*
X116546176Y-104978686D01*
X116546175Y-104978686D01*
X116385761Y-104930025D01*
X116385759Y-104930024D01*
X116385756Y-104930023D01*
X116237922Y-104851005D01*
X116108341Y-104744659D01*
X116001995Y-104615078D01*
X115922977Y-104467244D01*
X115874313Y-104306821D01*
X115857883Y-104140000D01*
X115874313Y-103973179D01*
X115922977Y-103812756D01*
X116001995Y-103664922D01*
X116108341Y-103535341D01*
X116237922Y-103428995D01*
X116385756Y-103349977D01*
X116385759Y-103349976D01*
X116385761Y-103349975D01*
X116546175Y-103301314D01*
X116546176Y-103301314D01*
X116546179Y-103301313D01*
X116671196Y-103289000D01*
X116754804Y-103289000D01*
X116879821Y-103301313D01*
X116879821Y-103301313D01*
G37*
G36*
X101639821Y-100761313D02*
X101639824Y-100761314D01*
X101639825Y-100761314D01*
X101800239Y-100809975D01*
X101800241Y-100809976D01*
X101800244Y-100809977D01*
X101948078Y-100888995D01*
X102077659Y-100995341D01*
X102184005Y-101124922D01*
X102263023Y-101272756D01*
X102311687Y-101433179D01*
X102328117Y-101600000D01*
X102311687Y-101766821D01*
X102263023Y-101927244D01*
X102184005Y-102075078D01*
X102077659Y-102204659D01*
X101948078Y-102311005D01*
X101800244Y-102390023D01*
X101800241Y-102390024D01*
X101800239Y-102390025D01*
X101639825Y-102438686D01*
X101639824Y-102438686D01*
X101639821Y-102438687D01*
X101514804Y-102451000D01*
X101431196Y-102451000D01*
X101306179Y-102438687D01*
X101306176Y-102438686D01*
X101306175Y-102438686D01*
X101145761Y-102390025D01*
X101145759Y-102390024D01*
X101145756Y-102390023D01*
X100997922Y-102311005D01*
X100868341Y-102204659D01*
X100761995Y-102075078D01*
X100682977Y-101927244D01*
X100634313Y-101766821D01*
X100617883Y-101600000D01*
X100634313Y-101433179D01*
X100682977Y-101272756D01*
X100761995Y-101124922D01*
X100868341Y-100995341D01*
X100997922Y-100888995D01*
X101145756Y-100809977D01*
X101145759Y-100809976D01*
X101145761Y-100809975D01*
X101306175Y-100761314D01*
X101306176Y-100761314D01*
X101306179Y-100761313D01*
X101431196Y-100749000D01*
X101514804Y-100749000D01*
X101639821Y-100761313D01*
X101639821Y-100761313D01*
G37*
G36*
X116879821Y-100761313D02*
X116879824Y-100761314D01*
X116879825Y-100761314D01*
X117040239Y-100809975D01*
X117040241Y-100809976D01*
X117040244Y-100809977D01*
X117188078Y-100888995D01*
X117317659Y-100995341D01*
X117424005Y-101124922D01*
X117503023Y-101272756D01*
X117551687Y-101433179D01*
X117568117Y-101600000D01*
X117551687Y-101766821D01*
X117503023Y-101927244D01*
X117424005Y-102075078D01*
X117317659Y-102204659D01*
X117188078Y-102311005D01*
X117040244Y-102390023D01*
X117040241Y-102390024D01*
X117040239Y-102390025D01*
X116879825Y-102438686D01*
X116879824Y-102438686D01*
X116879821Y-102438687D01*
X116754804Y-102451000D01*
X116671196Y-102451000D01*
X116546179Y-102438687D01*
X116546176Y-102438686D01*
X116546175Y-102438686D01*
X116385761Y-102390025D01*
X116385759Y-102390024D01*
X116385756Y-102390023D01*
X116237922Y-102311005D01*
X116108341Y-102204659D01*
X116001995Y-102075078D01*
X115922977Y-101927244D01*
X115874313Y-101766821D01*
X115857883Y-101600000D01*
X115874313Y-101433179D01*
X115922977Y-101272756D01*
X116001995Y-101124922D01*
X116108341Y-100995341D01*
X116237922Y-100888995D01*
X116385756Y-100809977D01*
X116385759Y-100809976D01*
X116385761Y-100809975D01*
X116546175Y-100761314D01*
X116546176Y-100761314D01*
X116546179Y-100761313D01*
X116671196Y-100749000D01*
X116754804Y-100749000D01*
X116879821Y-100761313D01*
X116879821Y-100761313D01*
G37*
G36*
X101639821Y-98221313D02*
X101639824Y-98221314D01*
X101639825Y-98221314D01*
X101800239Y-98269975D01*
X101800241Y-98269976D01*
X101800244Y-98269977D01*
X101948078Y-98348995D01*
X102077659Y-98455341D01*
X102184005Y-98584922D01*
X102263023Y-98732756D01*
X102311687Y-98893179D01*
X102328117Y-99060000D01*
X102311687Y-99226821D01*
X102263023Y-99387244D01*
X102184005Y-99535078D01*
X102077659Y-99664659D01*
X101948078Y-99771005D01*
X101800244Y-99850023D01*
X101800241Y-99850024D01*
X101800239Y-99850025D01*
X101639825Y-99898686D01*
X101639824Y-99898686D01*
X101639821Y-99898687D01*
X101514804Y-99911000D01*
X101431196Y-99911000D01*
X101306179Y-99898687D01*
X101306176Y-99898686D01*
X101306175Y-99898686D01*
X101145761Y-99850025D01*
X101145759Y-99850024D01*
X101145756Y-99850023D01*
X100997922Y-99771005D01*
X100868341Y-99664659D01*
X100761995Y-99535078D01*
X100682977Y-99387244D01*
X100634313Y-99226821D01*
X100617883Y-99060000D01*
X100634313Y-98893179D01*
X100682977Y-98732756D01*
X100761995Y-98584922D01*
X100868341Y-98455341D01*
X100997922Y-98348995D01*
X101145756Y-98269977D01*
X101145759Y-98269976D01*
X101145761Y-98269975D01*
X101306175Y-98221314D01*
X101306176Y-98221314D01*
X101306179Y-98221313D01*
X101431196Y-98209000D01*
X101514804Y-98209000D01*
X101639821Y-98221313D01*
X101639821Y-98221313D01*
G37*
G36*
X116879821Y-98221313D02*
X116879824Y-98221314D01*
X116879825Y-98221314D01*
X117040239Y-98269975D01*
X117040241Y-98269976D01*
X117040244Y-98269977D01*
X117188078Y-98348995D01*
X117317659Y-98455341D01*
X117424005Y-98584922D01*
X117503023Y-98732756D01*
X117551687Y-98893179D01*
X117568117Y-99060000D01*
X117551687Y-99226821D01*
X117503023Y-99387244D01*
X117424005Y-99535078D01*
X117317659Y-99664659D01*
X117188078Y-99771005D01*
X117040244Y-99850023D01*
X117040241Y-99850024D01*
X117040239Y-99850025D01*
X116879825Y-99898686D01*
X116879824Y-99898686D01*
X116879821Y-99898687D01*
X116754804Y-99911000D01*
X116671196Y-99911000D01*
X116546179Y-99898687D01*
X116546176Y-99898686D01*
X116546175Y-99898686D01*
X116385761Y-99850025D01*
X116385759Y-99850024D01*
X116385756Y-99850023D01*
X116237922Y-99771005D01*
X116108341Y-99664659D01*
X116001995Y-99535078D01*
X115922977Y-99387244D01*
X115874313Y-99226821D01*
X115857883Y-99060000D01*
X115874313Y-98893179D01*
X115922977Y-98732756D01*
X116001995Y-98584922D01*
X116108341Y-98455341D01*
X116237922Y-98348995D01*
X116385756Y-98269977D01*
X116385759Y-98269976D01*
X116385761Y-98269975D01*
X116546175Y-98221314D01*
X116546176Y-98221314D01*
X116546179Y-98221313D01*
X116671196Y-98209000D01*
X116754804Y-98209000D01*
X116879821Y-98221313D01*
X116879821Y-98221313D01*
G37*
G36*
X114733591Y-94212602D02*
X110595602Y-98350591D01*
X109604238Y-97359227D01*
X113742227Y-93221238D01*
X114733591Y-94212602D01*
X114733591Y-94212602D01*
G37*
G36*
X108581762Y-97359227D02*
X107590398Y-98350591D01*
X103452409Y-94212602D01*
X104443773Y-93221238D01*
X108581762Y-97359227D01*
X108581762Y-97359227D01*
G37*
G36*
X116879821Y-95681313D02*
X116879824Y-95681314D01*
X116879825Y-95681314D01*
X117040239Y-95729975D01*
X117040241Y-95729976D01*
X117040244Y-95729977D01*
X117188078Y-95808995D01*
X117317659Y-95915341D01*
X117424005Y-96044922D01*
X117503023Y-96192756D01*
X117503024Y-96192759D01*
X117503025Y-96192761D01*
X117551686Y-96353175D01*
X117551687Y-96353179D01*
X117568117Y-96520000D01*
X117551687Y-96686821D01*
X117551686Y-96686824D01*
X117551686Y-96686825D01*
X117551489Y-96687476D01*
X117503023Y-96847244D01*
X117424005Y-96995078D01*
X117317659Y-97124659D01*
X117188078Y-97231005D01*
X117040244Y-97310023D01*
X117040241Y-97310024D01*
X117040239Y-97310025D01*
X116879825Y-97358686D01*
X116879824Y-97358686D01*
X116879821Y-97358687D01*
X116754804Y-97371000D01*
X116671196Y-97371000D01*
X116546179Y-97358687D01*
X116546176Y-97358686D01*
X116546175Y-97358686D01*
X116385761Y-97310025D01*
X116385759Y-97310024D01*
X116385756Y-97310023D01*
X116237922Y-97231005D01*
X116108341Y-97124659D01*
X116001995Y-96995078D01*
X115922977Y-96847244D01*
X115874512Y-96687476D01*
X115874314Y-96686825D01*
X115874314Y-96686824D01*
X115874313Y-96686821D01*
X115857883Y-96520000D01*
X115874313Y-96353179D01*
X115874314Y-96353175D01*
X115922975Y-96192761D01*
X115922976Y-96192759D01*
X115922977Y-96192756D01*
X116001995Y-96044922D01*
X116108341Y-95915341D01*
X116237922Y-95808995D01*
X116385756Y-95729977D01*
X116385759Y-95729976D01*
X116385761Y-95729975D01*
X116546175Y-95681314D01*
X116546176Y-95681314D01*
X116546179Y-95681313D01*
X116671196Y-95669000D01*
X116754804Y-95669000D01*
X116879821Y-95681313D01*
X116879821Y-95681313D01*
G37*
G36*
X101639821Y-95681313D02*
X101639824Y-95681314D01*
X101639825Y-95681314D01*
X101800239Y-95729975D01*
X101800241Y-95729976D01*
X101800244Y-95729977D01*
X101948078Y-95808995D01*
X102077659Y-95915341D01*
X102184005Y-96044922D01*
X102263023Y-96192756D01*
X102263024Y-96192759D01*
X102263025Y-96192761D01*
X102311686Y-96353175D01*
X102311687Y-96353179D01*
X102328117Y-96520000D01*
X102311687Y-96686821D01*
X102311686Y-96686824D01*
X102311686Y-96686825D01*
X102311489Y-96687476D01*
X102263023Y-96847244D01*
X102184005Y-96995078D01*
X102077659Y-97124659D01*
X101948078Y-97231005D01*
X101800244Y-97310023D01*
X101800241Y-97310024D01*
X101800239Y-97310025D01*
X101639825Y-97358686D01*
X101639824Y-97358686D01*
X101639821Y-97358687D01*
X101514804Y-97371000D01*
X101431196Y-97371000D01*
X101306179Y-97358687D01*
X101306176Y-97358686D01*
X101306175Y-97358686D01*
X101145761Y-97310025D01*
X101145759Y-97310024D01*
X101145756Y-97310023D01*
X100997922Y-97231005D01*
X100868341Y-97124659D01*
X100761995Y-96995078D01*
X100682977Y-96847244D01*
X100634512Y-96687476D01*
X100634314Y-96686825D01*
X100634314Y-96686824D01*
X100634313Y-96686821D01*
X100617883Y-96520000D01*
X100634313Y-96353179D01*
X100634314Y-96353175D01*
X100682975Y-96192761D01*
X100682976Y-96192759D01*
X100682977Y-96192756D01*
X100761995Y-96044922D01*
X100868341Y-95915341D01*
X100997922Y-95808995D01*
X101145756Y-95729977D01*
X101145759Y-95729976D01*
X101145761Y-95729975D01*
X101306175Y-95681314D01*
X101306176Y-95681314D01*
X101306179Y-95681313D01*
X101431196Y-95669000D01*
X101514804Y-95669000D01*
X101639821Y-95681313D01*
X101639821Y-95681313D01*
G37*
G36*
X101639821Y-93141313D02*
X101639824Y-93141314D01*
X101639825Y-93141314D01*
X101800239Y-93189975D01*
X101800241Y-93189976D01*
X101800244Y-93189977D01*
X101948078Y-93268995D01*
X102077659Y-93375341D01*
X102184005Y-93504922D01*
X102263023Y-93652756D01*
X102311687Y-93813179D01*
X102328117Y-93980000D01*
X102311687Y-94146821D01*
X102311686Y-94146824D01*
X102311686Y-94146825D01*
X102291733Y-94212602D01*
X102263023Y-94307244D01*
X102184005Y-94455078D01*
X102077659Y-94584659D01*
X101948078Y-94691005D01*
X101800244Y-94770023D01*
X101800241Y-94770024D01*
X101800239Y-94770025D01*
X101639825Y-94818686D01*
X101639824Y-94818686D01*
X101639821Y-94818687D01*
X101514804Y-94831000D01*
X101431196Y-94831000D01*
X101306179Y-94818687D01*
X101306176Y-94818686D01*
X101306175Y-94818686D01*
X101145761Y-94770025D01*
X101145759Y-94770024D01*
X101145756Y-94770023D01*
X100997922Y-94691005D01*
X100868341Y-94584659D01*
X100761995Y-94455078D01*
X100682977Y-94307244D01*
X100654268Y-94212602D01*
X100634314Y-94146825D01*
X100634314Y-94146824D01*
X100634313Y-94146821D01*
X100617883Y-93980000D01*
X100634313Y-93813179D01*
X100682977Y-93652756D01*
X100761995Y-93504922D01*
X100868341Y-93375341D01*
X100997922Y-93268995D01*
X101145756Y-93189977D01*
X101145759Y-93189976D01*
X101145761Y-93189975D01*
X101306175Y-93141314D01*
X101306176Y-93141314D01*
X101306179Y-93141313D01*
X101431196Y-93129000D01*
X101514804Y-93129000D01*
X101639821Y-93141313D01*
X101639821Y-93141313D01*
G37*
G36*
X116879821Y-93141313D02*
X116879824Y-93141314D01*
X116879825Y-93141314D01*
X117040239Y-93189975D01*
X117040241Y-93189976D01*
X117040244Y-93189977D01*
X117188078Y-93268995D01*
X117317659Y-93375341D01*
X117424005Y-93504922D01*
X117503023Y-93652756D01*
X117551687Y-93813179D01*
X117568117Y-93980000D01*
X117551687Y-94146821D01*
X117551686Y-94146824D01*
X117551686Y-94146825D01*
X117531733Y-94212602D01*
X117503023Y-94307244D01*
X117424005Y-94455078D01*
X117317659Y-94584659D01*
X117188078Y-94691005D01*
X117040244Y-94770023D01*
X117040241Y-94770024D01*
X117040239Y-94770025D01*
X116879825Y-94818686D01*
X116879824Y-94818686D01*
X116879821Y-94818687D01*
X116754804Y-94831000D01*
X116671196Y-94831000D01*
X116546179Y-94818687D01*
X116546176Y-94818686D01*
X116546175Y-94818686D01*
X116385761Y-94770025D01*
X116385759Y-94770024D01*
X116385756Y-94770023D01*
X116237922Y-94691005D01*
X116108341Y-94584659D01*
X116001995Y-94455078D01*
X115922977Y-94307244D01*
X115894268Y-94212602D01*
X115874314Y-94146825D01*
X115874314Y-94146824D01*
X115874313Y-94146821D01*
X115857883Y-93980000D01*
X115874313Y-93813179D01*
X115922977Y-93652756D01*
X116001995Y-93504922D01*
X116108341Y-93375341D01*
X116237922Y-93268995D01*
X116385756Y-93189977D01*
X116385759Y-93189976D01*
X116385761Y-93189975D01*
X116546175Y-93141314D01*
X116546176Y-93141314D01*
X116546179Y-93141313D01*
X116671196Y-93129000D01*
X116754804Y-93129000D01*
X116879821Y-93141313D01*
X116879821Y-93141313D01*
G37*
G36*
X101639821Y-90601313D02*
X101639824Y-90601314D01*
X101639825Y-90601314D01*
X101800239Y-90649975D01*
X101800241Y-90649976D01*
X101800244Y-90649977D01*
X101948078Y-90728995D01*
X102077659Y-90835341D01*
X102184005Y-90964922D01*
X102263023Y-91112756D01*
X102263024Y-91112759D01*
X102263025Y-91112761D01*
X102311686Y-91273175D01*
X102311687Y-91273179D01*
X102328117Y-91440000D01*
X102311687Y-91606821D01*
X102263023Y-91767244D01*
X102184005Y-91915078D01*
X102077659Y-92044659D01*
X101948078Y-92151005D01*
X101800244Y-92230023D01*
X101800241Y-92230024D01*
X101800239Y-92230025D01*
X101639825Y-92278686D01*
X101639824Y-92278686D01*
X101639821Y-92278687D01*
X101514804Y-92291000D01*
X101431196Y-92291000D01*
X101306179Y-92278687D01*
X101306176Y-92278686D01*
X101306175Y-92278686D01*
X101145761Y-92230025D01*
X101145759Y-92230024D01*
X101145756Y-92230023D01*
X100997922Y-92151005D01*
X100868341Y-92044659D01*
X100761995Y-91915078D01*
X100682977Y-91767244D01*
X100634313Y-91606821D01*
X100617883Y-91440000D01*
X100634313Y-91273179D01*
X100634314Y-91273175D01*
X100682975Y-91112761D01*
X100682976Y-91112759D01*
X100682977Y-91112756D01*
X100761995Y-90964922D01*
X100868341Y-90835341D01*
X100997922Y-90728995D01*
X101145756Y-90649977D01*
X101145759Y-90649976D01*
X101145761Y-90649975D01*
X101306175Y-90601314D01*
X101306176Y-90601314D01*
X101306179Y-90601313D01*
X101431196Y-90589000D01*
X101514804Y-90589000D01*
X101639821Y-90601313D01*
X101639821Y-90601313D01*
G37*
G36*
X116879821Y-90601313D02*
X116879824Y-90601314D01*
X116879825Y-90601314D01*
X117040239Y-90649975D01*
X117040241Y-90649976D01*
X117040244Y-90649977D01*
X117188078Y-90728995D01*
X117317659Y-90835341D01*
X117424005Y-90964922D01*
X117503023Y-91112756D01*
X117503024Y-91112759D01*
X117503025Y-91112761D01*
X117551686Y-91273175D01*
X117551687Y-91273179D01*
X117568117Y-91440000D01*
X117551687Y-91606821D01*
X117503023Y-91767244D01*
X117424005Y-91915078D01*
X117317659Y-92044659D01*
X117188078Y-92151005D01*
X117040244Y-92230023D01*
X117040241Y-92230024D01*
X117040239Y-92230025D01*
X116879825Y-92278686D01*
X116879824Y-92278686D01*
X116879821Y-92278687D01*
X116754804Y-92291000D01*
X116671196Y-92291000D01*
X116546179Y-92278687D01*
X116546176Y-92278686D01*
X116546175Y-92278686D01*
X116385761Y-92230025D01*
X116385759Y-92230024D01*
X116385756Y-92230023D01*
X116237922Y-92151005D01*
X116108341Y-92044659D01*
X116001995Y-91915078D01*
X115922977Y-91767244D01*
X115874313Y-91606821D01*
X115857883Y-91440000D01*
X115874313Y-91273179D01*
X115874314Y-91273175D01*
X115922975Y-91112761D01*
X115922976Y-91112759D01*
X115922977Y-91112756D01*
X116001995Y-90964922D01*
X116108341Y-90835341D01*
X116237922Y-90728995D01*
X116385756Y-90649977D01*
X116385759Y-90649976D01*
X116385761Y-90649975D01*
X116546175Y-90601314D01*
X116546176Y-90601314D01*
X116546179Y-90601313D01*
X116671196Y-90589000D01*
X116754804Y-90589000D01*
X116879821Y-90601313D01*
X116879821Y-90601313D01*
G37*
G36*
X108581762Y-88060773D02*
X104443773Y-92198762D01*
X103452409Y-91207398D01*
X107590398Y-87069409D01*
X108581762Y-88060773D01*
X108581762Y-88060773D01*
G37*
G36*
X114733591Y-91207398D02*
X113742227Y-92198762D01*
X109604238Y-88060773D01*
X110595602Y-87069409D01*
X114733591Y-91207398D01*
X114733591Y-91207398D01*
G37*
G36*
X101639821Y-88061313D02*
X101639824Y-88061314D01*
X101639825Y-88061314D01*
X101800239Y-88109975D01*
X101800241Y-88109976D01*
X101800244Y-88109977D01*
X101948078Y-88188995D01*
X102077659Y-88295341D01*
X102184005Y-88424922D01*
X102263023Y-88572756D01*
X102263024Y-88572759D01*
X102263025Y-88572761D01*
X102311686Y-88733175D01*
X102311687Y-88733179D01*
X102328117Y-88900000D01*
X102311687Y-89066821D01*
X102311686Y-89066824D01*
X102311686Y-89066825D01*
X102305846Y-89086078D01*
X102263023Y-89227244D01*
X102184005Y-89375078D01*
X102077659Y-89504659D01*
X101948078Y-89611005D01*
X101800244Y-89690023D01*
X101800241Y-89690024D01*
X101800239Y-89690025D01*
X101639825Y-89738686D01*
X101639824Y-89738686D01*
X101639821Y-89738687D01*
X101514804Y-89751000D01*
X101431196Y-89751000D01*
X101306179Y-89738687D01*
X101306176Y-89738686D01*
X101306175Y-89738686D01*
X101145761Y-89690025D01*
X101145759Y-89690024D01*
X101145756Y-89690023D01*
X100997922Y-89611005D01*
X100868341Y-89504659D01*
X100761995Y-89375078D01*
X100682977Y-89227244D01*
X100640155Y-89086078D01*
X100634314Y-89066825D01*
X100634314Y-89066824D01*
X100634313Y-89066821D01*
X100617883Y-88900000D01*
X100634313Y-88733179D01*
X100634314Y-88733175D01*
X100682975Y-88572761D01*
X100682976Y-88572759D01*
X100682977Y-88572756D01*
X100761995Y-88424922D01*
X100868341Y-88295341D01*
X100997922Y-88188995D01*
X101145756Y-88109977D01*
X101145759Y-88109976D01*
X101145761Y-88109975D01*
X101306175Y-88061314D01*
X101306176Y-88061314D01*
X101306179Y-88061313D01*
X101431196Y-88049000D01*
X101514804Y-88049000D01*
X101639821Y-88061313D01*
X101639821Y-88061313D01*
G37*
G36*
X116879821Y-88061313D02*
X116879824Y-88061314D01*
X116879825Y-88061314D01*
X117040239Y-88109975D01*
X117040241Y-88109976D01*
X117040244Y-88109977D01*
X117188078Y-88188995D01*
X117317659Y-88295341D01*
X117424005Y-88424922D01*
X117503023Y-88572756D01*
X117503024Y-88572759D01*
X117503025Y-88572761D01*
X117551686Y-88733175D01*
X117551687Y-88733179D01*
X117568117Y-88900000D01*
X117551687Y-89066821D01*
X117551686Y-89066824D01*
X117551686Y-89066825D01*
X117545846Y-89086078D01*
X117503023Y-89227244D01*
X117424005Y-89375078D01*
X117317659Y-89504659D01*
X117188078Y-89611005D01*
X117040244Y-89690023D01*
X117040241Y-89690024D01*
X117040239Y-89690025D01*
X116879825Y-89738686D01*
X116879824Y-89738686D01*
X116879821Y-89738687D01*
X116754804Y-89751000D01*
X116671196Y-89751000D01*
X116546179Y-89738687D01*
X116546176Y-89738686D01*
X116546175Y-89738686D01*
X116385761Y-89690025D01*
X116385759Y-89690024D01*
X116385756Y-89690023D01*
X116237922Y-89611005D01*
X116108341Y-89504659D01*
X116001995Y-89375078D01*
X115922977Y-89227244D01*
X115880155Y-89086078D01*
X115874314Y-89066825D01*
X115874314Y-89066824D01*
X115874313Y-89066821D01*
X115857883Y-88900000D01*
X115874313Y-88733179D01*
X115874314Y-88733175D01*
X115922975Y-88572761D01*
X115922976Y-88572759D01*
X115922977Y-88572756D01*
X116001995Y-88424922D01*
X116108341Y-88295341D01*
X116237922Y-88188995D01*
X116385756Y-88109977D01*
X116385759Y-88109976D01*
X116385761Y-88109975D01*
X116546175Y-88061314D01*
X116546176Y-88061314D01*
X116546179Y-88061313D01*
X116671196Y-88049000D01*
X116754804Y-88049000D01*
X116879821Y-88061313D01*
X116879821Y-88061313D01*
G37*
G36*
X101639821Y-85521313D02*
X101639824Y-85521314D01*
X101639825Y-85521314D01*
X101800239Y-85569975D01*
X101800241Y-85569976D01*
X101800244Y-85569977D01*
X101948078Y-85648995D01*
X102077659Y-85755341D01*
X102184005Y-85884922D01*
X102263023Y-86032756D01*
X102311687Y-86193179D01*
X102328117Y-86360000D01*
X102311687Y-86526821D01*
X102263023Y-86687244D01*
X102184005Y-86835078D01*
X102077659Y-86964659D01*
X101948078Y-87071005D01*
X101800244Y-87150023D01*
X101800241Y-87150024D01*
X101800239Y-87150025D01*
X101639825Y-87198686D01*
X101639824Y-87198686D01*
X101639821Y-87198687D01*
X101514804Y-87211000D01*
X101431196Y-87211000D01*
X101306179Y-87198687D01*
X101306176Y-87198686D01*
X101306175Y-87198686D01*
X101145761Y-87150025D01*
X101145759Y-87150024D01*
X101145756Y-87150023D01*
X100997922Y-87071005D01*
X100868341Y-86964659D01*
X100761995Y-86835078D01*
X100682977Y-86687244D01*
X100634313Y-86526821D01*
X100617883Y-86360000D01*
X100634313Y-86193179D01*
X100682977Y-86032756D01*
X100761995Y-85884922D01*
X100868341Y-85755341D01*
X100997922Y-85648995D01*
X101145756Y-85569977D01*
X101145759Y-85569976D01*
X101145761Y-85569975D01*
X101306175Y-85521314D01*
X101306176Y-85521314D01*
X101306179Y-85521313D01*
X101431196Y-85509000D01*
X101514804Y-85509000D01*
X101639821Y-85521313D01*
X101639821Y-85521313D01*
G37*
G36*
X116879821Y-85521313D02*
X116879824Y-85521314D01*
X116879825Y-85521314D01*
X117040239Y-85569975D01*
X117040241Y-85569976D01*
X117040244Y-85569977D01*
X117188078Y-85648995D01*
X117317659Y-85755341D01*
X117424005Y-85884922D01*
X117503023Y-86032756D01*
X117551687Y-86193179D01*
X117568117Y-86360000D01*
X117551687Y-86526821D01*
X117503023Y-86687244D01*
X117424005Y-86835078D01*
X117317659Y-86964659D01*
X117188078Y-87071005D01*
X117040244Y-87150023D01*
X117040241Y-87150024D01*
X117040239Y-87150025D01*
X116879825Y-87198686D01*
X116879824Y-87198686D01*
X116879821Y-87198687D01*
X116754804Y-87211000D01*
X116671196Y-87211000D01*
X116546179Y-87198687D01*
X116546176Y-87198686D01*
X116546175Y-87198686D01*
X116385761Y-87150025D01*
X116385759Y-87150024D01*
X116385756Y-87150023D01*
X116237922Y-87071005D01*
X116108341Y-86964659D01*
X116001995Y-86835078D01*
X115922977Y-86687244D01*
X115874313Y-86526821D01*
X115857883Y-86360000D01*
X115874313Y-86193179D01*
X115922977Y-86032756D01*
X116001995Y-85884922D01*
X116108341Y-85755341D01*
X116237922Y-85648995D01*
X116385756Y-85569977D01*
X116385759Y-85569976D01*
X116385761Y-85569975D01*
X116546175Y-85521314D01*
X116546176Y-85521314D01*
X116546179Y-85521313D01*
X116671196Y-85509000D01*
X116754804Y-85509000D01*
X116879821Y-85521313D01*
X116879821Y-85521313D01*
G37*
G36*
X101639821Y-82981313D02*
X101639824Y-82981314D01*
X101639825Y-82981314D01*
X101800239Y-83029975D01*
X101800241Y-83029976D01*
X101800244Y-83029977D01*
X101948078Y-83108995D01*
X102077659Y-83215341D01*
X102184005Y-83344922D01*
X102263023Y-83492756D01*
X102311687Y-83653179D01*
X102328117Y-83820000D01*
X102311687Y-83986821D01*
X102263023Y-84147244D01*
X102184005Y-84295078D01*
X102077659Y-84424659D01*
X101948078Y-84531005D01*
X101800244Y-84610023D01*
X101800241Y-84610024D01*
X101800239Y-84610025D01*
X101639825Y-84658686D01*
X101639824Y-84658686D01*
X101639821Y-84658687D01*
X101514804Y-84671000D01*
X101431196Y-84671000D01*
X101306179Y-84658687D01*
X101306176Y-84658686D01*
X101306175Y-84658686D01*
X101145761Y-84610025D01*
X101145759Y-84610024D01*
X101145756Y-84610023D01*
X100997922Y-84531005D01*
X100868341Y-84424659D01*
X100761995Y-84295078D01*
X100682977Y-84147244D01*
X100634313Y-83986821D01*
X100617883Y-83820000D01*
X100634313Y-83653179D01*
X100682977Y-83492756D01*
X100761995Y-83344922D01*
X100868341Y-83215341D01*
X100997922Y-83108995D01*
X101145756Y-83029977D01*
X101145759Y-83029976D01*
X101145761Y-83029975D01*
X101306175Y-82981314D01*
X101306176Y-82981314D01*
X101306179Y-82981313D01*
X101431196Y-82969000D01*
X101514804Y-82969000D01*
X101639821Y-82981313D01*
X101639821Y-82981313D01*
G37*
G36*
X116879821Y-82981313D02*
X116879824Y-82981314D01*
X116879825Y-82981314D01*
X117040239Y-83029975D01*
X117040241Y-83029976D01*
X117040244Y-83029977D01*
X117188078Y-83108995D01*
X117317659Y-83215341D01*
X117424005Y-83344922D01*
X117503023Y-83492756D01*
X117551687Y-83653179D01*
X117568117Y-83820000D01*
X117551687Y-83986821D01*
X117503023Y-84147244D01*
X117424005Y-84295078D01*
X117317659Y-84424659D01*
X117188078Y-84531005D01*
X117040244Y-84610023D01*
X117040241Y-84610024D01*
X117040239Y-84610025D01*
X116879825Y-84658686D01*
X116879824Y-84658686D01*
X116879821Y-84658687D01*
X116754804Y-84671000D01*
X116671196Y-84671000D01*
X116546179Y-84658687D01*
X116546176Y-84658686D01*
X116546175Y-84658686D01*
X116385761Y-84610025D01*
X116385759Y-84610024D01*
X116385756Y-84610023D01*
X116237922Y-84531005D01*
X116108341Y-84424659D01*
X116001995Y-84295078D01*
X115922977Y-84147244D01*
X115874313Y-83986821D01*
X115857883Y-83820000D01*
X115874313Y-83653179D01*
X115922977Y-83492756D01*
X116001995Y-83344922D01*
X116108341Y-83215341D01*
X116237922Y-83108995D01*
X116385756Y-83029977D01*
X116385759Y-83029976D01*
X116385761Y-83029975D01*
X116546175Y-82981314D01*
X116546176Y-82981314D01*
X116546179Y-82981313D01*
X116671196Y-82969000D01*
X116754804Y-82969000D01*
X116879821Y-82981313D01*
X116879821Y-82981313D01*
G37*
G36*
X101639821Y-80441313D02*
X101639824Y-80441314D01*
X101639825Y-80441314D01*
X101800239Y-80489975D01*
X101800241Y-80489976D01*
X101800244Y-80489977D01*
X101948078Y-80568995D01*
X102077659Y-80675341D01*
X102184005Y-80804922D01*
X102263023Y-80952756D01*
X102311687Y-81113179D01*
X102328117Y-81280000D01*
X102311687Y-81446821D01*
X102263023Y-81607244D01*
X102184005Y-81755078D01*
X102077659Y-81884659D01*
X101948078Y-81991005D01*
X101800244Y-82070023D01*
X101800241Y-82070024D01*
X101800239Y-82070025D01*
X101639825Y-82118686D01*
X101639824Y-82118686D01*
X101639821Y-82118687D01*
X101514804Y-82131000D01*
X101431196Y-82131000D01*
X101306179Y-82118687D01*
X101306176Y-82118686D01*
X101306175Y-82118686D01*
X101145761Y-82070025D01*
X101145759Y-82070024D01*
X101145756Y-82070023D01*
X100997922Y-81991005D01*
X100868341Y-81884659D01*
X100761995Y-81755078D01*
X100682977Y-81607244D01*
X100634313Y-81446821D01*
X100617883Y-81280000D01*
X100634313Y-81113179D01*
X100682977Y-80952756D01*
X100761995Y-80804922D01*
X100868341Y-80675341D01*
X100997922Y-80568995D01*
X101145756Y-80489977D01*
X101145759Y-80489976D01*
X101145761Y-80489975D01*
X101306175Y-80441314D01*
X101306176Y-80441314D01*
X101306179Y-80441313D01*
X101431196Y-80429000D01*
X101514804Y-80429000D01*
X101639821Y-80441313D01*
X101639821Y-80441313D01*
G37*
G36*
X116879821Y-80441313D02*
X116879824Y-80441314D01*
X116879825Y-80441314D01*
X117040239Y-80489975D01*
X117040241Y-80489976D01*
X117040244Y-80489977D01*
X117188078Y-80568995D01*
X117317659Y-80675341D01*
X117424005Y-80804922D01*
X117503023Y-80952756D01*
X117551687Y-81113179D01*
X117568117Y-81280000D01*
X117551687Y-81446821D01*
X117503023Y-81607244D01*
X117424005Y-81755078D01*
X117317659Y-81884659D01*
X117188078Y-81991005D01*
X117040244Y-82070023D01*
X117040241Y-82070024D01*
X117040239Y-82070025D01*
X116879825Y-82118686D01*
X116879824Y-82118686D01*
X116879821Y-82118687D01*
X116754804Y-82131000D01*
X116671196Y-82131000D01*
X116546179Y-82118687D01*
X116546176Y-82118686D01*
X116546175Y-82118686D01*
X116385761Y-82070025D01*
X116385759Y-82070024D01*
X116385756Y-82070023D01*
X116237922Y-81991005D01*
X116108341Y-81884659D01*
X116001995Y-81755078D01*
X115922977Y-81607244D01*
X115874313Y-81446821D01*
X115857883Y-81280000D01*
X115874313Y-81113179D01*
X115922977Y-80952756D01*
X116001995Y-80804922D01*
X116108341Y-80675341D01*
X116237922Y-80568995D01*
X116385756Y-80489977D01*
X116385759Y-80489976D01*
X116385761Y-80489975D01*
X116546175Y-80441314D01*
X116546176Y-80441314D01*
X116546179Y-80441313D01*
X116671196Y-80429000D01*
X116754804Y-80429000D01*
X116879821Y-80441313D01*
X116879821Y-80441313D01*
G37*
G36*
X101639821Y-77901313D02*
X101639824Y-77901314D01*
X101639825Y-77901314D01*
X101800239Y-77949975D01*
X101800241Y-77949976D01*
X101800244Y-77949977D01*
X101948078Y-78028995D01*
X102077659Y-78135341D01*
X102184005Y-78264922D01*
X102263023Y-78412756D01*
X102311687Y-78573179D01*
X102328117Y-78740000D01*
X102311687Y-78906821D01*
X102263023Y-79067244D01*
X102184005Y-79215078D01*
X102077659Y-79344659D01*
X101948078Y-79451005D01*
X101800244Y-79530023D01*
X101800241Y-79530024D01*
X101800239Y-79530025D01*
X101639825Y-79578686D01*
X101639824Y-79578686D01*
X101639821Y-79578687D01*
X101514804Y-79591000D01*
X101431196Y-79591000D01*
X101306179Y-79578687D01*
X101306176Y-79578686D01*
X101306175Y-79578686D01*
X101145761Y-79530025D01*
X101145759Y-79530024D01*
X101145756Y-79530023D01*
X100997922Y-79451005D01*
X100868341Y-79344659D01*
X100761995Y-79215078D01*
X100682977Y-79067244D01*
X100634313Y-78906821D01*
X100617883Y-78740000D01*
X100634313Y-78573179D01*
X100682977Y-78412756D01*
X100761995Y-78264922D01*
X100868341Y-78135341D01*
X100997922Y-78028995D01*
X101145756Y-77949977D01*
X101145759Y-77949976D01*
X101145761Y-77949975D01*
X101306175Y-77901314D01*
X101306176Y-77901314D01*
X101306179Y-77901313D01*
X101431196Y-77889000D01*
X101514804Y-77889000D01*
X101639821Y-77901313D01*
X101639821Y-77901313D01*
G37*
G36*
X116879821Y-77901313D02*
X116879824Y-77901314D01*
X116879825Y-77901314D01*
X117040239Y-77949975D01*
X117040241Y-77949976D01*
X117040244Y-77949977D01*
X117188078Y-78028995D01*
X117317659Y-78135341D01*
X117424005Y-78264922D01*
X117503023Y-78412756D01*
X117551687Y-78573179D01*
X117568117Y-78740000D01*
X117551687Y-78906821D01*
X117503023Y-79067244D01*
X117424005Y-79215078D01*
X117317659Y-79344659D01*
X117188078Y-79451005D01*
X117040244Y-79530023D01*
X117040241Y-79530024D01*
X117040239Y-79530025D01*
X116879825Y-79578686D01*
X116879824Y-79578686D01*
X116879821Y-79578687D01*
X116754804Y-79591000D01*
X116671196Y-79591000D01*
X116546179Y-79578687D01*
X116546176Y-79578686D01*
X116546175Y-79578686D01*
X116385761Y-79530025D01*
X116385759Y-79530024D01*
X116385756Y-79530023D01*
X116237922Y-79451005D01*
X116108341Y-79344659D01*
X116001995Y-79215078D01*
X115922977Y-79067244D01*
X115874313Y-78906821D01*
X115857883Y-78740000D01*
X115874313Y-78573179D01*
X115922977Y-78412756D01*
X116001995Y-78264922D01*
X116108341Y-78135341D01*
X116237922Y-78028995D01*
X116385756Y-77949977D01*
X116385759Y-77949976D01*
X116385761Y-77949975D01*
X116546175Y-77901314D01*
X116546176Y-77901314D01*
X116546179Y-77901313D01*
X116671196Y-77889000D01*
X116754804Y-77889000D01*
X116879821Y-77901313D01*
X116879821Y-77901313D01*
G37*
G36*
X116879821Y-75361313D02*
X116879824Y-75361314D01*
X116879825Y-75361314D01*
X117040239Y-75409975D01*
X117040241Y-75409976D01*
X117040244Y-75409977D01*
X117188078Y-75488995D01*
X117317659Y-75595341D01*
X117424005Y-75724922D01*
X117503023Y-75872756D01*
X117551687Y-76033179D01*
X117568117Y-76200000D01*
X117551687Y-76366821D01*
X117503023Y-76527244D01*
X117424005Y-76675078D01*
X117317659Y-76804659D01*
X117188078Y-76911005D01*
X117040244Y-76990023D01*
X117040241Y-76990024D01*
X117040239Y-76990025D01*
X116879825Y-77038686D01*
X116879824Y-77038686D01*
X116879821Y-77038687D01*
X116754804Y-77051000D01*
X116671196Y-77051000D01*
X116546179Y-77038687D01*
X116546176Y-77038686D01*
X116546175Y-77038686D01*
X116385761Y-76990025D01*
X116385759Y-76990024D01*
X116385756Y-76990023D01*
X116237922Y-76911005D01*
X116108341Y-76804659D01*
X116001995Y-76675078D01*
X115922977Y-76527244D01*
X115874313Y-76366821D01*
X115857883Y-76200000D01*
X115874313Y-76033179D01*
X115922977Y-75872756D01*
X116001995Y-75724922D01*
X116108341Y-75595341D01*
X116237922Y-75488995D01*
X116385756Y-75409977D01*
X116385759Y-75409976D01*
X116385761Y-75409975D01*
X116546175Y-75361314D01*
X116546176Y-75361314D01*
X116546179Y-75361313D01*
X116671196Y-75349000D01*
X116754804Y-75349000D01*
X116879821Y-75361313D01*
X116879821Y-75361313D01*
G37*
G36*
X101639821Y-75361313D02*
X101639824Y-75361314D01*
X101639825Y-75361314D01*
X101800239Y-75409975D01*
X101800241Y-75409976D01*
X101800244Y-75409977D01*
X101948078Y-75488995D01*
X102077659Y-75595341D01*
X102184005Y-75724922D01*
X102263023Y-75872756D01*
X102311687Y-76033179D01*
X102328117Y-76200000D01*
X102311687Y-76366821D01*
X102263023Y-76527244D01*
X102184005Y-76675078D01*
X102077659Y-76804659D01*
X101948078Y-76911005D01*
X101800244Y-76990023D01*
X101800241Y-76990024D01*
X101800239Y-76990025D01*
X101639825Y-77038686D01*
X101639824Y-77038686D01*
X101639821Y-77038687D01*
X101514804Y-77051000D01*
X101431196Y-77051000D01*
X101306179Y-77038687D01*
X101306176Y-77038686D01*
X101306175Y-77038686D01*
X101145761Y-76990025D01*
X101145759Y-76990024D01*
X101145756Y-76990023D01*
X100997922Y-76911005D01*
X100868341Y-76804659D01*
X100761995Y-76675078D01*
X100682977Y-76527244D01*
X100634313Y-76366821D01*
X100617883Y-76200000D01*
X100634313Y-76033179D01*
X100682977Y-75872756D01*
X100761995Y-75724922D01*
X100868341Y-75595341D01*
X100997922Y-75488995D01*
X101145756Y-75409977D01*
X101145759Y-75409976D01*
X101145761Y-75409975D01*
X101306175Y-75361314D01*
X101306176Y-75361314D01*
X101306179Y-75361313D01*
X101431196Y-75349000D01*
X101514804Y-75349000D01*
X101639821Y-75361313D01*
X101639821Y-75361313D01*
G37*
G36*
X116879821Y-72821313D02*
X116879824Y-72821314D01*
X116879825Y-72821314D01*
X117040239Y-72869975D01*
X117040241Y-72869976D01*
X117040244Y-72869977D01*
X117188078Y-72948995D01*
X117317659Y-73055341D01*
X117424005Y-73184922D01*
X117503023Y-73332756D01*
X117551687Y-73493179D01*
X117568117Y-73660000D01*
X117551687Y-73826821D01*
X117503023Y-73987244D01*
X117424005Y-74135078D01*
X117317659Y-74264659D01*
X117188078Y-74371005D01*
X117040244Y-74450023D01*
X117040241Y-74450024D01*
X117040239Y-74450025D01*
X116879825Y-74498686D01*
X116879824Y-74498686D01*
X116879821Y-74498687D01*
X116754804Y-74511000D01*
X116671196Y-74511000D01*
X116546179Y-74498687D01*
X116546176Y-74498686D01*
X116546175Y-74498686D01*
X116385761Y-74450025D01*
X116385759Y-74450024D01*
X116385756Y-74450023D01*
X116237922Y-74371005D01*
X116108341Y-74264659D01*
X116001995Y-74135078D01*
X115922977Y-73987244D01*
X115874313Y-73826821D01*
X115857883Y-73660000D01*
X115874313Y-73493179D01*
X115922977Y-73332756D01*
X116001995Y-73184922D01*
X116108341Y-73055341D01*
X116237922Y-72948995D01*
X116385756Y-72869977D01*
X116385759Y-72869976D01*
X116385761Y-72869975D01*
X116546175Y-72821314D01*
X116546176Y-72821314D01*
X116546179Y-72821313D01*
X116671196Y-72809000D01*
X116754804Y-72809000D01*
X116879821Y-72821313D01*
X116879821Y-72821313D01*
G37*
G36*
X101639821Y-72821313D02*
X101639824Y-72821314D01*
X101639825Y-72821314D01*
X101800239Y-72869975D01*
X101800241Y-72869976D01*
X101800244Y-72869977D01*
X101948078Y-72948995D01*
X102077659Y-73055341D01*
X102184005Y-73184922D01*
X102263023Y-73332756D01*
X102311687Y-73493179D01*
X102328117Y-73660000D01*
X102311687Y-73826821D01*
X102263023Y-73987244D01*
X102184005Y-74135078D01*
X102077659Y-74264659D01*
X101948078Y-74371005D01*
X101800244Y-74450023D01*
X101800241Y-74450024D01*
X101800239Y-74450025D01*
X101639825Y-74498686D01*
X101639824Y-74498686D01*
X101639821Y-74498687D01*
X101514804Y-74511000D01*
X101431196Y-74511000D01*
X101306179Y-74498687D01*
X101306176Y-74498686D01*
X101306175Y-74498686D01*
X101145761Y-74450025D01*
X101145759Y-74450024D01*
X101145756Y-74450023D01*
X100997922Y-74371005D01*
X100868341Y-74264659D01*
X100761995Y-74135078D01*
X100682977Y-73987244D01*
X100634313Y-73826821D01*
X100617883Y-73660000D01*
X100634313Y-73493179D01*
X100682977Y-73332756D01*
X100761995Y-73184922D01*
X100868341Y-73055341D01*
X100997922Y-72948995D01*
X101145756Y-72869977D01*
X101145759Y-72869976D01*
X101145761Y-72869975D01*
X101306175Y-72821314D01*
X101306176Y-72821314D01*
X101306179Y-72821313D01*
X101431196Y-72809000D01*
X101514804Y-72809000D01*
X101639821Y-72821313D01*
X101639821Y-72821313D01*
G37*
G36*
X116879821Y-70281313D02*
X116879824Y-70281314D01*
X116879825Y-70281314D01*
X117040239Y-70329975D01*
X117040241Y-70329976D01*
X117040244Y-70329977D01*
X117188078Y-70408995D01*
X117317659Y-70515341D01*
X117424005Y-70644922D01*
X117503023Y-70792756D01*
X117551687Y-70953179D01*
X117568117Y-71120000D01*
X117551687Y-71286821D01*
X117503023Y-71447244D01*
X117424005Y-71595078D01*
X117317659Y-71724659D01*
X117188078Y-71831005D01*
X117040244Y-71910023D01*
X117040241Y-71910024D01*
X117040239Y-71910025D01*
X116879825Y-71958686D01*
X116879824Y-71958686D01*
X116879821Y-71958687D01*
X116754804Y-71971000D01*
X116671196Y-71971000D01*
X116546179Y-71958687D01*
X116546176Y-71958686D01*
X116546175Y-71958686D01*
X116385761Y-71910025D01*
X116385759Y-71910024D01*
X116385756Y-71910023D01*
X116237922Y-71831005D01*
X116108341Y-71724659D01*
X116001995Y-71595078D01*
X115922977Y-71447244D01*
X115874313Y-71286821D01*
X115857883Y-71120000D01*
X115874313Y-70953179D01*
X115922977Y-70792756D01*
X116001995Y-70644922D01*
X116108341Y-70515341D01*
X116237922Y-70408995D01*
X116385756Y-70329977D01*
X116385759Y-70329976D01*
X116385761Y-70329975D01*
X116546175Y-70281314D01*
X116546176Y-70281314D01*
X116546179Y-70281313D01*
X116671196Y-70269000D01*
X116754804Y-70269000D01*
X116879821Y-70281313D01*
X116879821Y-70281313D01*
G37*
G36*
X101639821Y-70281313D02*
X101639824Y-70281314D01*
X101639825Y-70281314D01*
X101800239Y-70329975D01*
X101800241Y-70329976D01*
X101800244Y-70329977D01*
X101948078Y-70408995D01*
X102077659Y-70515341D01*
X102184005Y-70644922D01*
X102263023Y-70792756D01*
X102311687Y-70953179D01*
X102328117Y-71120000D01*
X102311687Y-71286821D01*
X102263023Y-71447244D01*
X102184005Y-71595078D01*
X102077659Y-71724659D01*
X101948078Y-71831005D01*
X101800244Y-71910023D01*
X101800241Y-71910024D01*
X101800239Y-71910025D01*
X101639825Y-71958686D01*
X101639824Y-71958686D01*
X101639821Y-71958687D01*
X101514804Y-71971000D01*
X101431196Y-71971000D01*
X101306179Y-71958687D01*
X101306176Y-71958686D01*
X101306175Y-71958686D01*
X101145761Y-71910025D01*
X101145759Y-71910024D01*
X101145756Y-71910023D01*
X100997922Y-71831005D01*
X100868341Y-71724659D01*
X100761995Y-71595078D01*
X100682977Y-71447244D01*
X100634313Y-71286821D01*
X100617883Y-71120000D01*
X100634313Y-70953179D01*
X100682977Y-70792756D01*
X100761995Y-70644922D01*
X100868341Y-70515341D01*
X100997922Y-70408995D01*
X101145756Y-70329977D01*
X101145759Y-70329976D01*
X101145761Y-70329975D01*
X101306175Y-70281314D01*
X101306176Y-70281314D01*
X101306179Y-70281313D01*
X101431196Y-70269000D01*
X101514804Y-70269000D01*
X101639821Y-70281313D01*
X101639821Y-70281313D01*
G37*
G36*
X116879821Y-67741313D02*
X116879824Y-67741314D01*
X116879825Y-67741314D01*
X117040239Y-67789975D01*
X117040241Y-67789976D01*
X117040244Y-67789977D01*
X117188078Y-67868995D01*
X117317659Y-67975341D01*
X117424005Y-68104922D01*
X117503023Y-68252756D01*
X117551687Y-68413179D01*
X117568117Y-68580000D01*
X117551687Y-68746821D01*
X117503023Y-68907244D01*
X117424005Y-69055078D01*
X117317659Y-69184659D01*
X117188078Y-69291005D01*
X117040244Y-69370023D01*
X117040241Y-69370024D01*
X117040239Y-69370025D01*
X116879825Y-69418686D01*
X116879824Y-69418686D01*
X116879821Y-69418687D01*
X116754804Y-69431000D01*
X116671196Y-69431000D01*
X116546179Y-69418687D01*
X116546176Y-69418686D01*
X116546175Y-69418686D01*
X116385761Y-69370025D01*
X116385759Y-69370024D01*
X116385756Y-69370023D01*
X116237922Y-69291005D01*
X116108341Y-69184659D01*
X116001995Y-69055078D01*
X115922977Y-68907244D01*
X115874313Y-68746821D01*
X115857883Y-68580000D01*
X115874313Y-68413179D01*
X115922977Y-68252756D01*
X116001995Y-68104922D01*
X116108341Y-67975341D01*
X116237922Y-67868995D01*
X116385756Y-67789977D01*
X116385759Y-67789976D01*
X116385761Y-67789975D01*
X116546175Y-67741314D01*
X116546176Y-67741314D01*
X116546179Y-67741313D01*
X116671196Y-67729000D01*
X116754804Y-67729000D01*
X116879821Y-67741313D01*
X116879821Y-67741313D01*
G37*
G36*
X101639821Y-67741313D02*
X101639824Y-67741314D01*
X101639825Y-67741314D01*
X101800239Y-67789975D01*
X101800241Y-67789976D01*
X101800244Y-67789977D01*
X101948078Y-67868995D01*
X102077659Y-67975341D01*
X102184005Y-68104922D01*
X102263023Y-68252756D01*
X102311687Y-68413179D01*
X102328117Y-68580000D01*
X102311687Y-68746821D01*
X102263023Y-68907244D01*
X102184005Y-69055078D01*
X102077659Y-69184659D01*
X101948078Y-69291005D01*
X101800244Y-69370023D01*
X101800241Y-69370024D01*
X101800239Y-69370025D01*
X101639825Y-69418686D01*
X101639824Y-69418686D01*
X101639821Y-69418687D01*
X101514804Y-69431000D01*
X101431196Y-69431000D01*
X101306179Y-69418687D01*
X101306176Y-69418686D01*
X101306175Y-69418686D01*
X101145761Y-69370025D01*
X101145759Y-69370024D01*
X101145756Y-69370023D01*
X100997922Y-69291005D01*
X100868341Y-69184659D01*
X100761995Y-69055078D01*
X100682977Y-68907244D01*
X100634313Y-68746821D01*
X100617883Y-68580000D01*
X100634313Y-68413179D01*
X100682977Y-68252756D01*
X100761995Y-68104922D01*
X100868341Y-67975341D01*
X100997922Y-67868995D01*
X101145756Y-67789977D01*
X101145759Y-67789976D01*
X101145761Y-67789975D01*
X101306175Y-67741314D01*
X101306176Y-67741314D01*
X101306179Y-67741313D01*
X101431196Y-67729000D01*
X101514804Y-67729000D01*
X101639821Y-67741313D01*
X101639821Y-67741313D01*
G37*
G36*
X116879821Y-65201313D02*
X116879824Y-65201314D01*
X116879825Y-65201314D01*
X117040239Y-65249975D01*
X117040241Y-65249976D01*
X117040244Y-65249977D01*
X117188078Y-65328995D01*
X117317659Y-65435341D01*
X117424005Y-65564922D01*
X117503023Y-65712756D01*
X117551687Y-65873179D01*
X117568117Y-66040000D01*
X117551687Y-66206821D01*
X117503023Y-66367244D01*
X117424005Y-66515078D01*
X117317659Y-66644659D01*
X117188078Y-66751005D01*
X117040244Y-66830023D01*
X117040241Y-66830024D01*
X117040239Y-66830025D01*
X116879825Y-66878686D01*
X116879824Y-66878686D01*
X116879821Y-66878687D01*
X116754804Y-66891000D01*
X116671196Y-66891000D01*
X116546179Y-66878687D01*
X116546176Y-66878686D01*
X116546175Y-66878686D01*
X116385761Y-66830025D01*
X116385759Y-66830024D01*
X116385756Y-66830023D01*
X116237922Y-66751005D01*
X116108341Y-66644659D01*
X116001995Y-66515078D01*
X115922977Y-66367244D01*
X115874313Y-66206821D01*
X115857883Y-66040000D01*
X115874313Y-65873179D01*
X115922977Y-65712756D01*
X116001995Y-65564922D01*
X116108341Y-65435341D01*
X116237922Y-65328995D01*
X116385756Y-65249977D01*
X116385759Y-65249976D01*
X116385761Y-65249975D01*
X116546175Y-65201314D01*
X116546176Y-65201314D01*
X116546179Y-65201313D01*
X116671196Y-65189000D01*
X116754804Y-65189000D01*
X116879821Y-65201313D01*
X116879821Y-65201313D01*
G37*
G36*
X101639821Y-65201313D02*
X101639824Y-65201314D01*
X101639825Y-65201314D01*
X101800239Y-65249975D01*
X101800241Y-65249976D01*
X101800244Y-65249977D01*
X101948078Y-65328995D01*
X102077659Y-65435341D01*
X102184005Y-65564922D01*
X102263023Y-65712756D01*
X102311687Y-65873179D01*
X102328117Y-66040000D01*
X102311687Y-66206821D01*
X102263023Y-66367244D01*
X102184005Y-66515078D01*
X102077659Y-66644659D01*
X101948078Y-66751005D01*
X101800244Y-66830023D01*
X101800241Y-66830024D01*
X101800239Y-66830025D01*
X101639825Y-66878686D01*
X101639824Y-66878686D01*
X101639821Y-66878687D01*
X101514804Y-66891000D01*
X101431196Y-66891000D01*
X101306179Y-66878687D01*
X101306176Y-66878686D01*
X101306175Y-66878686D01*
X101145761Y-66830025D01*
X101145759Y-66830024D01*
X101145756Y-66830023D01*
X100997922Y-66751005D01*
X100868341Y-66644659D01*
X100761995Y-66515078D01*
X100682977Y-66367244D01*
X100634313Y-66206821D01*
X100617883Y-66040000D01*
X100634313Y-65873179D01*
X100682977Y-65712756D01*
X100761995Y-65564922D01*
X100868341Y-65435341D01*
X100997922Y-65328995D01*
X101145756Y-65249977D01*
X101145759Y-65249976D01*
X101145761Y-65249975D01*
X101306175Y-65201314D01*
X101306176Y-65201314D01*
X101306179Y-65201313D01*
X101431196Y-65189000D01*
X101514804Y-65189000D01*
X101639821Y-65201313D01*
X101639821Y-65201313D01*
G37*
G36*
X102324000Y-64351000D02*
X100622000Y-64351000D01*
X100622000Y-62649000D01*
X102324000Y-62649000D01*
X102324000Y-64351000D01*
X102324000Y-64351000D01*
G37*
G36*
X116879821Y-62661313D02*
X116879824Y-62661314D01*
X116879825Y-62661314D01*
X117040239Y-62709975D01*
X117040241Y-62709976D01*
X117040244Y-62709977D01*
X117188078Y-62788995D01*
X117317659Y-62895341D01*
X117424005Y-63024922D01*
X117503023Y-63172756D01*
X117551687Y-63333179D01*
X117568117Y-63500000D01*
X117551687Y-63666821D01*
X117503023Y-63827244D01*
X117424005Y-63975078D01*
X117317659Y-64104659D01*
X117188078Y-64211005D01*
X117040244Y-64290023D01*
X117040241Y-64290024D01*
X117040239Y-64290025D01*
X116879825Y-64338686D01*
X116879824Y-64338686D01*
X116879821Y-64338687D01*
X116754804Y-64351000D01*
X116671196Y-64351000D01*
X116546179Y-64338687D01*
X116546176Y-64338686D01*
X116546175Y-64338686D01*
X116385761Y-64290025D01*
X116385759Y-64290024D01*
X116385756Y-64290023D01*
X116237922Y-64211005D01*
X116108341Y-64104659D01*
X116001995Y-63975078D01*
X115922977Y-63827244D01*
X115874313Y-63666821D01*
X115857883Y-63500000D01*
X115874313Y-63333179D01*
X115922977Y-63172756D01*
X116001995Y-63024922D01*
X116108341Y-62895341D01*
X116237922Y-62788995D01*
X116385756Y-62709977D01*
X116385759Y-62709976D01*
X116385761Y-62709975D01*
X116546175Y-62661314D01*
X116546176Y-62661314D01*
X116546179Y-62661313D01*
X116671196Y-62649000D01*
X116754804Y-62649000D01*
X116879821Y-62661313D01*
X116879821Y-62661313D01*
G37*
M02*
