M48
;DRILL file {KiCad (5.0.1-3-g963ef8bb5)} date Sunday, 03 July 2022 at 20:38:52
;FORMAT={-:-/ absolute / inch / decimal}
FMAT,2
INCH,TZ
T1C0.0315
%
G90
G05
M72
T1
X3.995Y-2.5
X3.995Y-2.6
X3.995Y-2.7
X3.995Y-2.8
X3.995Y-2.9
X3.995Y-3.
X3.995Y-3.1
X3.995Y-3.2
X3.995Y-3.3
X3.995Y-3.4
X3.995Y-3.5
X3.995Y-3.6
X3.995Y-3.7
X3.995Y-3.8
X3.995Y-3.9
X3.995Y-4.
X3.995Y-4.1
X3.995Y-4.2
X3.995Y-4.3
X3.995Y-4.4
X3.995Y-4.5
X3.995Y-4.6
X3.995Y-4.7
X3.995Y-4.8
X4.595Y-2.5
X4.595Y-2.6
X4.595Y-2.7
X4.595Y-2.8
X4.595Y-2.9
X4.595Y-3.
X4.595Y-3.1
X4.595Y-3.2
X4.595Y-3.3
X4.595Y-3.4
X4.595Y-3.5
X4.595Y-3.6
X4.595Y-3.7
X4.595Y-3.8
X4.595Y-3.9
X4.595Y-4.
X4.595Y-4.1
X4.595Y-4.2
X4.595Y-4.3
X4.595Y-4.4
X4.595Y-4.5
X4.595Y-4.6
X4.595Y-4.7
X4.595Y-4.8
T0
M30
