G04 #@! TF.GenerationSoftware,KiCad,Pcbnew,(5.0.1-3-g963ef8bb5)*
G04 #@! TF.CreationDate,2022-07-03T20:38:46+09:00*
G04 #@! TF.ProjectId,LQFP48-Breakout,4C51465034382D427265616B6F75742E,rev?*
G04 #@! TF.SameCoordinates,Original*
G04 #@! TF.FileFunction,Copper,L2,Bot,Signal*
G04 #@! TF.FilePolarity,Positive*
%FSLAX46Y46*%
G04 Gerber Fmt 4.6, Leading zero omitted, Abs format (unit mm)*
G04 Created by KiCad (PCBNEW (5.0.1-3-g963ef8bb5)) date Sunday, 03 July 2022 at 20:38:46*
%MOMM*%
%LPD*%
G01*
G04 APERTURE LIST*
G04 #@! TA.AperFunction,ComponentPad*
%ADD10R,1.600000X1.600000*%
G04 #@! TD*
G04 #@! TA.AperFunction,ComponentPad*
%ADD11O,1.600000X1.600000*%
G04 #@! TD*
G04 APERTURE END LIST*
D10*
G04 #@! TO.P,J1,1*
G04 #@! TO.N,/A1*
X101473000Y-63500000D03*
D11*
G04 #@! TO.P,J1,25*
G04 #@! TO.N,/B24*
X116713000Y-121920000D03*
G04 #@! TO.P,J1,2*
G04 #@! TO.N,/A2*
X101473000Y-66040000D03*
G04 #@! TO.P,J1,26*
G04 #@! TO.N,/B23*
X116713000Y-119380000D03*
G04 #@! TO.P,J1,3*
G04 #@! TO.N,/A3*
X101473000Y-68580000D03*
G04 #@! TO.P,J1,27*
G04 #@! TO.N,/B22*
X116713000Y-116840000D03*
G04 #@! TO.P,J1,4*
G04 #@! TO.N,/A4*
X101473000Y-71120000D03*
G04 #@! TO.P,J1,28*
G04 #@! TO.N,/B21*
X116713000Y-114300000D03*
G04 #@! TO.P,J1,5*
G04 #@! TO.N,/A5*
X101473000Y-73660000D03*
G04 #@! TO.P,J1,29*
G04 #@! TO.N,/B20*
X116713000Y-111760000D03*
G04 #@! TO.P,J1,6*
G04 #@! TO.N,/A6*
X101473000Y-76200000D03*
G04 #@! TO.P,J1,30*
G04 #@! TO.N,/B19*
X116713000Y-109220000D03*
G04 #@! TO.P,J1,7*
G04 #@! TO.N,/A7*
X101473000Y-78740000D03*
G04 #@! TO.P,J1,31*
G04 #@! TO.N,/B18*
X116713000Y-106680000D03*
G04 #@! TO.P,J1,8*
G04 #@! TO.N,/A8*
X101473000Y-81280000D03*
G04 #@! TO.P,J1,32*
G04 #@! TO.N,/B17*
X116713000Y-104140000D03*
G04 #@! TO.P,J1,9*
G04 #@! TO.N,/A9*
X101473000Y-83820000D03*
G04 #@! TO.P,J1,33*
G04 #@! TO.N,/B16*
X116713000Y-101600000D03*
G04 #@! TO.P,J1,10*
G04 #@! TO.N,/A10*
X101473000Y-86360000D03*
G04 #@! TO.P,J1,34*
G04 #@! TO.N,/B15*
X116713000Y-99060000D03*
G04 #@! TO.P,J1,11*
G04 #@! TO.N,/A11*
X101473000Y-88900000D03*
G04 #@! TO.P,J1,35*
G04 #@! TO.N,/B14*
X116713000Y-96520000D03*
G04 #@! TO.P,J1,12*
G04 #@! TO.N,/A12*
X101473000Y-91440000D03*
G04 #@! TO.P,J1,36*
G04 #@! TO.N,/B13*
X116713000Y-93980000D03*
G04 #@! TO.P,J1,13*
G04 #@! TO.N,/A13*
X101473000Y-93980000D03*
G04 #@! TO.P,J1,37*
G04 #@! TO.N,/B12*
X116713000Y-91440000D03*
G04 #@! TO.P,J1,14*
G04 #@! TO.N,/A14*
X101473000Y-96520000D03*
G04 #@! TO.P,J1,38*
G04 #@! TO.N,/B11*
X116713000Y-88900000D03*
G04 #@! TO.P,J1,15*
G04 #@! TO.N,/A15*
X101473000Y-99060000D03*
G04 #@! TO.P,J1,39*
G04 #@! TO.N,/B10*
X116713000Y-86360000D03*
G04 #@! TO.P,J1,16*
G04 #@! TO.N,/A16*
X101473000Y-101600000D03*
G04 #@! TO.P,J1,40*
G04 #@! TO.N,/B9*
X116713000Y-83820000D03*
G04 #@! TO.P,J1,17*
G04 #@! TO.N,/A17*
X101473000Y-104140000D03*
G04 #@! TO.P,J1,41*
G04 #@! TO.N,/B8*
X116713000Y-81280000D03*
G04 #@! TO.P,J1,18*
G04 #@! TO.N,/A18*
X101473000Y-106680000D03*
G04 #@! TO.P,J1,42*
G04 #@! TO.N,/B7*
X116713000Y-78740000D03*
G04 #@! TO.P,J1,19*
G04 #@! TO.N,/A19*
X101473000Y-109220000D03*
G04 #@! TO.P,J1,43*
G04 #@! TO.N,/B6*
X116713000Y-76200000D03*
G04 #@! TO.P,J1,20*
G04 #@! TO.N,/A20*
X101473000Y-111760000D03*
G04 #@! TO.P,J1,44*
G04 #@! TO.N,/B5*
X116713000Y-73660000D03*
G04 #@! TO.P,J1,21*
G04 #@! TO.N,/A21*
X101473000Y-114300000D03*
G04 #@! TO.P,J1,45*
G04 #@! TO.N,/B4*
X116713000Y-71120000D03*
G04 #@! TO.P,J1,22*
G04 #@! TO.N,/A22*
X101473000Y-116840000D03*
G04 #@! TO.P,J1,46*
G04 #@! TO.N,/B3*
X116713000Y-68580000D03*
G04 #@! TO.P,J1,23*
G04 #@! TO.N,/A23*
X101473000Y-119380000D03*
G04 #@! TO.P,J1,47*
G04 #@! TO.N,/B2*
X116713000Y-66040000D03*
G04 #@! TO.P,J1,24*
G04 #@! TO.N,/A24*
X101473000Y-121920000D03*
G04 #@! TO.P,J1,48*
G04 #@! TO.N,/B1*
X116713000Y-63500000D03*
G04 #@! TD*
M02*
